<svg width="503" height="670" viewBox="0 0 503 670" fill="none" xmlns="http://www.w3.org/2000/svg">
<path d="M59.4448 29L52.4248 8H55.5148L61.9648 27.38H60.4048L67.0948 8H69.8548L76.3948 27.38H74.8948L81.4348 8H84.2848L77.2648 29H74.1148L67.9948 11.03H68.8048L62.6548 29H59.4448ZM93.4135 29.18C91.7135 29.18 90.2135 28.83 88.9135 28.13C87.6335 27.43 86.6335 26.47 85.9135 25.25C85.2135 24.03 84.8635 22.63 84.8635 21.05C84.8635 19.47 85.2035 18.07 85.8835 16.85C86.5835 15.63 87.5335 14.68 88.7335 14C89.9535 13.3 91.3235 12.95 92.8435 12.95C94.3835 12.95 95.7435 13.29 96.9235 13.97C98.1035 14.65 99.0235 15.61 99.6835 16.85C100.364 18.07 100.704 19.5 100.704 21.14C100.704 21.26 100.694 21.4 100.674 21.56C100.674 21.72 100.664 21.87 100.644 22.01H87.1135V19.94H99.1435L97.9735 20.66C97.9935 19.64 97.7835 18.73 97.3435 17.93C96.9035 17.13 96.2935 16.51 95.5135 16.07C94.7535 15.61 93.8635 15.38 92.8435 15.38C91.8435 15.38 90.9535 15.61 90.1735 16.07C89.3935 16.51 88.7835 17.14 88.3435 17.96C87.9035 18.76 87.6835 19.68 87.6835 20.72V21.2C87.6835 22.26 87.9235 23.21 88.4035 24.05C88.9035 24.87 89.5935 25.51 90.4735 25.97C91.3535 26.43 92.3635 26.66 93.5035 26.66C94.4435 26.66 95.2935 26.5 96.0535 26.18C96.8335 25.86 97.5135 25.38 98.0935 24.74L99.6835 26.6C98.9635 27.44 98.0635 28.08 96.9835 28.52C95.9235 28.96 94.7335 29.18 93.4135 29.18ZM104.703 29V13.1H107.463V17.42L107.193 16.34C107.633 15.24 108.373 14.4 109.413 13.82C110.453 13.24 111.733 12.95 113.253 12.95V15.74C113.133 15.72 113.013 15.71 112.893 15.71C112.793 15.71 112.693 15.71 112.593 15.71C111.053 15.71 109.833 16.17 108.933 17.09C108.033 18.01 107.583 19.34 107.583 21.08V29H104.703ZM123.226 29.18C121.686 29.18 120.306 28.84 119.086 28.16C117.886 27.48 116.936 26.53 116.236 25.31C115.536 24.09 115.186 22.67 115.186 21.05C115.186 19.43 115.536 18.02 116.236 16.82C116.936 15.6 117.886 14.65 119.086 13.97C120.306 13.29 121.686 12.95 123.226 12.95C124.566 12.95 125.776 13.25 126.856 13.85C127.936 14.45 128.796 15.35 129.436 16.55C130.096 17.75 130.426 19.25 130.426 21.05C130.426 22.85 130.106 24.35 129.466 25.55C128.846 26.75 127.996 27.66 126.916 28.28C125.836 28.88 124.606 29.18 123.226 29.18ZM123.466 26.66C124.466 26.66 125.366 26.43 126.166 25.97C126.986 25.51 127.626 24.86 128.086 24.02C128.566 23.16 128.806 22.17 128.806 21.05C128.806 19.91 128.566 18.93 128.086 18.11C127.626 17.27 126.986 16.62 126.166 16.16C125.366 15.7 124.466 15.47 123.466 15.47C122.446 15.47 121.536 15.7 120.736 16.16C119.936 16.62 119.296 17.27 118.816 18.11C118.336 18.93 118.096 19.91 118.096 21.05C118.096 22.17 118.336 23.16 118.816 24.02C119.296 24.86 119.936 25.51 120.736 25.97C121.536 26.43 122.446 26.66 123.466 26.66ZM128.896 29V24.71L129.076 21.02L128.776 17.33V6.74H131.656V29H128.896ZM144.185 29.18C142.485 29.18 140.985 28.83 139.685 28.13C138.405 27.43 137.405 26.47 136.685 25.25C135.985 24.03 135.635 22.63 135.635 21.05C135.635 19.47 135.975 18.07 136.655 16.85C137.355 15.63 138.305 14.68 139.505 14C140.725 13.3 142.095 12.95 143.615 12.95C145.155 12.95 146.515 13.29 147.695 13.97C148.875 14.65 149.795 15.61 150.455 16.85C151.135 18.07 151.475 19.5 151.475 21.14C151.475 21.26 151.465 21.4 151.445 21.56C151.445 21.72 151.435 21.87 151.415 22.01H137.885V19.94H149.915L148.745 20.66C148.765 19.64 148.555 18.73 148.115 17.93C147.675 17.13 147.065 16.51 146.285 16.07C145.525 15.61 144.635 15.38 143.615 15.38C142.615 15.38 141.725 15.61 140.945 16.07C140.165 16.51 139.555 17.14 139.115 17.96C138.675 18.76 138.455 19.68 138.455 20.72V21.2C138.455 22.26 138.695 23.21 139.175 24.05C139.675 24.87 140.365 25.51 141.245 25.97C142.125 26.43 143.135 26.66 144.275 26.66C145.215 26.66 146.065 26.5 146.825 26.18C147.605 25.86 148.285 25.38 148.865 24.74L150.455 26.6C149.735 27.44 148.835 28.08 147.755 28.52C146.695 28.96 145.505 29.18 144.185 29.18ZM173.341 29.24C171.741 29.24 170.261 28.98 168.901 28.46C167.561 27.92 166.391 27.17 165.391 26.21C164.411 25.23 163.641 24.09 163.081 22.79C162.521 21.49 162.241 20.06 162.241 18.5C162.241 16.94 162.521 15.51 163.081 14.21C163.641 12.91 164.421 11.78 165.421 10.82C166.421 9.84 167.591 9.09 168.931 8.57C170.291 8.03 171.771 7.76 173.371 7.76C174.991 7.76 176.481 8.04 177.841 8.6C179.221 9.14 180.391 9.95 181.351 11.03L179.401 12.92C178.601 12.08 177.701 11.46 176.701 11.06C175.701 10.64 174.631 10.43 173.491 10.43C172.311 10.43 171.211 10.63 170.191 11.03C169.191 11.43 168.321 11.99 167.581 12.71C166.841 13.43 166.261 14.29 165.841 15.29C165.441 16.27 165.241 17.34 165.241 18.5C165.241 19.66 165.441 20.74 165.841 21.74C166.261 22.72 166.841 23.57 167.581 24.29C168.321 25.01 169.191 25.57 170.191 25.97C171.211 26.37 172.311 26.57 173.491 26.57C174.631 26.57 175.701 26.37 176.701 25.97C177.701 25.55 178.601 24.91 179.401 24.05L181.351 25.94C180.391 27.02 179.221 27.84 177.841 28.4C176.481 28.96 174.981 29.24 173.341 29.24ZM194.875 29V25.64L194.725 25.01V19.28C194.725 18.06 194.365 17.12 193.645 16.46C192.945 15.78 191.885 15.44 190.465 15.44C189.525 15.44 188.605 15.6 187.705 15.92C186.805 16.22 186.045 16.63 185.425 17.15L184.225 14.99C185.045 14.33 186.025 13.83 187.165 13.49C188.325 13.13 189.535 12.95 190.795 12.95C192.975 12.95 194.655 13.48 195.835 14.54C197.015 15.6 197.605 17.22 197.605 19.4V29H194.875ZM189.655 29.18C188.475 29.18 187.435 28.98 186.535 28.58C185.655 28.18 184.975 27.63 184.495 26.93C184.015 26.21 183.775 25.4 183.775 24.5C183.775 23.64 183.975 22.86 184.375 22.16C184.795 21.46 185.465 20.9 186.385 20.48C187.325 20.06 188.585 19.85 190.165 19.85H195.205V21.92H190.285C188.845 21.92 187.875 22.16 187.375 22.64C186.875 23.12 186.625 23.7 186.625 24.38C186.625 25.16 186.935 25.79 187.555 26.27C188.175 26.73 189.035 26.96 190.135 26.96C191.215 26.96 192.155 26.72 192.955 26.24C193.775 25.76 194.365 25.06 194.725 24.14L195.295 26.12C194.915 27.06 194.245 27.81 193.285 28.37C192.325 28.91 191.115 29.18 189.655 29.18ZM202.935 29V13.1H205.695V17.42L205.425 16.34C205.865 15.24 206.605 14.4 207.645 13.82C208.685 13.24 209.965 12.95 211.485 12.95V15.74C211.365 15.72 211.245 15.71 211.125 15.71C211.025 15.71 210.925 15.71 210.825 15.71C209.285 15.71 208.065 16.17 207.165 17.09C206.265 18.01 205.815 19.34 205.815 21.08V29H202.935ZM221.848 35C220.388 35 218.968 34.79 217.588 34.37C216.228 33.97 215.118 33.39 214.258 32.63L215.638 30.41C216.378 31.05 217.288 31.55 218.368 31.91C219.448 32.29 220.578 32.48 221.758 32.48C223.638 32.48 225.018 32.04 225.898 31.16C226.778 30.28 227.218 28.94 227.218 27.14V23.78L227.518 20.63L227.368 17.45V13.1H230.098V26.84C230.098 29.64 229.398 31.7 227.998 33.02C226.598 34.34 224.548 35 221.848 35ZM221.488 28.34C219.948 28.34 218.568 28.02 217.348 27.38C216.148 26.72 215.188 25.81 214.468 24.65C213.768 23.49 213.418 22.15 213.418 20.63C213.418 19.09 213.768 17.75 214.468 16.61C215.188 15.45 216.148 14.55 217.348 13.91C218.568 13.27 219.948 12.95 221.488 12.95C222.848 12.95 224.088 13.23 225.208 13.79C226.328 14.33 227.218 15.17 227.878 16.31C228.558 17.45 228.898 18.89 228.898 20.63C228.898 22.35 228.558 23.78 227.878 24.92C227.218 26.06 226.328 26.92 225.208 27.5C224.088 28.06 222.848 28.34 221.488 28.34ZM221.818 25.82C222.878 25.82 223.818 25.6 224.638 25.16C225.458 24.72 226.098 24.11 226.558 23.33C227.038 22.55 227.278 21.65 227.278 20.63C227.278 19.61 227.038 18.71 226.558 17.93C226.098 17.15 225.458 16.55 224.638 16.13C223.818 15.69 222.878 15.47 221.818 15.47C220.758 15.47 219.808 15.69 218.968 16.13C218.148 16.55 217.498 17.15 217.018 17.93C216.558 18.71 216.328 19.61 216.328 20.63C216.328 21.65 216.558 22.55 217.018 23.33C217.498 24.11 218.148 24.72 218.968 25.16C219.808 25.6 220.758 25.82 221.818 25.82ZM242.411 29.18C240.811 29.18 239.391 28.83 238.151 28.13C236.911 27.43 235.931 26.47 235.211 25.25C234.491 24.01 234.131 22.61 234.131 21.05C234.131 19.47 234.491 18.07 235.211 16.85C235.931 15.63 236.911 14.68 238.151 14C239.391 13.3 240.811 12.95 242.411 12.95C243.991 12.95 245.401 13.3 246.641 14C247.901 14.68 248.881 15.63 249.581 16.85C250.301 18.05 250.661 19.45 250.661 21.05C250.661 22.63 250.301 24.03 249.581 25.25C248.881 26.47 247.901 27.43 246.641 28.13C245.401 28.83 243.991 29.18 242.411 29.18ZM242.411 26.66C243.431 26.66 244.341 26.43 245.141 25.97C245.961 25.51 246.601 24.86 247.061 24.02C247.521 23.16 247.751 22.17 247.751 21.05C247.751 19.91 247.521 18.93 247.061 18.11C246.601 17.27 245.961 16.62 245.141 16.16C244.341 15.7 243.431 15.47 242.411 15.47C241.391 15.47 240.481 15.7 239.681 16.16C238.881 16.62 238.241 17.27 237.761 18.11C237.281 18.93 237.041 19.91 237.041 21.05C237.041 22.17 237.281 23.16 237.761 24.02C238.241 24.86 238.881 25.51 239.681 25.97C240.481 26.43 241.391 26.66 242.411 26.66ZM263.134 12.95C264.434 12.95 265.574 13.2 266.554 13.7C267.554 14.2 268.334 14.96 268.894 15.98C269.454 17 269.734 18.29 269.734 19.85V29H266.854V20.18C266.854 18.64 266.474 17.48 265.714 16.7C264.974 15.92 263.924 15.53 262.564 15.53C261.544 15.53 260.654 15.73 259.894 16.13C259.134 16.53 258.544 17.12 258.124 17.9C257.724 18.68 257.524 19.65 257.524 20.81V29H254.644V13.1H257.404V17.39L256.954 16.25C257.474 15.21 258.274 14.4 259.354 13.82C260.434 13.24 261.694 12.95 263.134 12.95ZM284.934 29V25.64L284.784 25.01V19.28C284.784 18.06 284.424 17.12 283.704 16.46C283.004 15.78 281.944 15.44 280.524 15.44C279.584 15.44 278.664 15.6 277.764 15.92C276.864 16.22 276.104 16.63 275.484 17.15L274.284 14.99C275.104 14.33 276.084 13.83 277.224 13.49C278.384 13.13 279.594 12.95 280.854 12.95C283.034 12.95 284.714 13.48 285.894 14.54C287.074 15.6 287.664 17.22 287.664 19.4V29H284.934ZM279.714 29.18C278.534 29.18 277.494 28.98 276.594 28.58C275.714 28.18 275.034 27.63 274.554 26.93C274.074 26.21 273.834 25.4 273.834 24.5C273.834 23.64 274.034 22.86 274.434 22.16C274.854 21.46 275.524 20.9 276.444 20.48C277.384 20.06 278.644 19.85 280.224 19.85H285.264V21.92H280.344C278.904 21.92 277.934 22.16 277.434 22.64C276.934 23.12 276.684 23.7 276.684 24.38C276.684 25.16 276.994 25.79 277.614 26.27C278.234 26.73 279.094 26.96 280.194 26.96C281.274 26.96 282.214 26.72 283.014 26.24C283.834 25.76 284.424 25.06 284.784 24.14L285.354 26.12C284.974 27.06 284.304 27.81 283.344 28.37C282.384 28.91 281.174 29.18 279.714 29.18ZM299.684 29.18C298.324 29.18 297.124 28.93 296.084 28.43C295.064 27.93 294.264 27.17 293.684 26.15C293.124 25.11 292.844 23.81 292.844 22.25V13.1H295.724V21.92C295.724 23.48 296.094 24.65 296.834 25.43C297.594 26.21 298.654 26.6 300.014 26.6C301.014 26.6 301.884 26.4 302.624 26C303.364 25.58 303.934 24.98 304.334 24.2C304.734 23.4 304.934 22.44 304.934 21.32V13.1H307.814V29H305.084V24.71L305.534 25.85C305.014 26.91 304.234 27.73 303.194 28.31C302.154 28.89 300.984 29.18 299.684 29.18ZM318.756 29.18C317.156 29.18 315.916 28.75 315.036 27.89C314.156 27.03 313.716 25.8 313.716 24.2V9.62H316.596V24.08C316.596 24.94 316.806 25.6 317.226 26.06C317.666 26.52 318.286 26.75 319.086 26.75C319.986 26.75 320.736 26.5 321.336 26L322.236 28.07C321.796 28.45 321.266 28.73 320.646 28.91C320.046 29.09 319.416 29.18 318.756 29.18ZM311.016 15.47V13.1H321.156V15.47H311.016ZM330.278 29.18C328.958 29.18 327.698 29 326.498 28.64C325.318 28.28 324.388 27.84 323.708 27.32L324.908 25.04C325.588 25.5 326.428 25.89 327.428 26.21C328.428 26.53 329.448 26.69 330.488 26.69C331.828 26.69 332.788 26.5 333.368 26.12C333.968 25.74 334.268 25.21 334.268 24.53C334.268 24.03 334.088 23.64 333.728 23.36C333.368 23.08 332.888 22.87 332.288 22.73C331.708 22.59 331.058 22.47 330.338 22.37C329.618 22.25 328.898 22.11 328.178 21.95C327.458 21.77 326.798 21.53 326.198 21.23C325.598 20.91 325.118 20.48 324.758 19.94C324.398 19.38 324.218 18.64 324.218 17.72C324.218 16.76 324.488 15.92 325.028 15.2C325.568 14.48 326.328 13.93 327.308 13.55C328.308 13.15 329.488 12.95 330.848 12.95C331.888 12.95 332.938 13.08 333.998 13.34C335.078 13.58 335.958 13.93 336.638 14.39L335.408 16.67C334.688 16.19 333.938 15.86 333.158 15.68C332.378 15.5 331.598 15.41 330.818 15.41C329.558 15.41 328.618 15.62 327.998 16.04C327.378 16.44 327.068 16.96 327.068 17.6C327.068 18.14 327.248 18.56 327.608 18.86C327.988 19.14 328.468 19.36 329.048 19.52C329.648 19.68 330.308 19.82 331.028 19.94C331.748 20.04 332.468 20.18 333.188 20.36C333.908 20.52 334.558 20.75 335.138 21.05C335.738 21.35 336.218 21.77 336.578 22.31C336.958 22.85 337.148 23.57 337.148 24.47C337.148 25.43 336.868 26.26 336.308 26.96C335.748 27.66 334.958 28.21 333.938 28.61C332.918 28.99 331.698 29.18 330.278 29.18ZM349.178 29.18C347.858 29.18 346.648 28.88 345.548 28.28C344.468 27.66 343.598 26.75 342.938 25.55C342.298 24.35 341.978 22.85 341.978 21.05C341.978 19.25 342.288 17.75 342.908 16.55C343.548 15.35 344.408 14.45 345.488 13.85C346.588 13.25 347.818 12.95 349.178 12.95C350.738 12.95 352.118 13.29 353.318 13.97C354.518 14.65 355.468 15.6 356.168 16.82C356.868 18.02 357.218 19.43 357.218 21.05C357.218 22.67 356.868 24.09 356.168 25.31C355.468 26.53 354.518 27.48 353.318 28.16C352.118 28.84 350.738 29.18 349.178 29.18ZM340.748 34.82V13.1H343.508V17.39L343.328 21.08L343.628 24.77V34.82H340.748ZM348.938 26.66C349.958 26.66 350.868 26.43 351.668 25.97C352.488 25.51 353.128 24.86 353.588 24.02C354.068 23.16 354.308 22.17 354.308 21.05C354.308 19.91 354.068 18.93 353.588 18.11C353.128 17.27 352.488 16.62 351.668 16.16C350.868 15.7 349.958 15.47 348.938 15.47C347.938 15.47 347.028 15.7 346.208 16.16C345.408 16.62 344.768 17.27 344.288 18.11C343.828 18.93 343.598 19.91 343.598 21.05C343.598 22.17 343.828 23.16 344.288 24.02C344.768 24.86 345.408 25.51 346.208 25.97C347.028 26.43 347.938 26.66 348.938 26.66ZM368.277 29.18C366.577 29.18 365.077 28.83 363.777 28.13C362.497 27.43 361.497 26.47 360.777 25.25C360.077 24.03 359.727 22.63 359.727 21.05C359.727 19.47 360.067 18.07 360.747 16.85C361.447 15.63 362.397 14.68 363.597 14C364.817 13.3 366.187 12.95 367.707 12.95C369.247 12.95 370.607 13.29 371.787 13.97C372.967 14.65 373.887 15.61 374.547 16.85C375.227 18.07 375.567 19.5 375.567 21.14C375.567 21.26 375.557 21.4 375.537 21.56C375.537 21.72 375.527 21.87 375.507 22.01H361.977V19.94H374.007L372.837 20.66C372.857 19.64 372.647 18.73 372.207 17.93C371.767 17.13 371.157 16.51 370.377 16.07C369.617 15.61 368.727 15.38 367.707 15.38C366.707 15.38 365.817 15.61 365.037 16.07C364.257 16.51 363.647 17.14 363.207 17.96C362.767 18.76 362.547 19.68 362.547 20.72V21.2C362.547 22.26 362.787 23.21 363.267 24.05C363.767 24.87 364.457 25.51 365.337 25.97C366.217 26.43 367.227 26.66 368.367 26.66C369.307 26.66 370.157 26.5 370.917 26.18C371.697 25.86 372.377 25.38 372.957 24.74L374.547 26.6C373.827 27.44 372.927 28.08 371.847 28.52C370.787 28.96 369.597 29.18 368.277 29.18ZM386.136 29.18C384.596 29.18 383.216 28.84 381.996 28.16C380.796 27.48 379.846 26.53 379.146 25.31C378.446 24.09 378.096 22.67 378.096 21.05C378.096 19.43 378.446 18.02 379.146 16.82C379.846 15.6 380.796 14.65 381.996 13.97C383.216 13.29 384.596 12.95 386.136 12.95C387.476 12.95 388.686 13.25 389.766 13.85C390.846 14.45 391.706 15.35 392.346 16.55C393.006 17.75 393.336 19.25 393.336 21.05C393.336 22.85 393.016 24.35 392.376 25.55C391.756 26.75 390.906 27.66 389.826 28.28C388.746 28.88 387.516 29.18 386.136 29.18ZM386.376 26.66C387.376 26.66 388.276 26.43 389.076 25.97C389.896 25.51 390.536 24.86 390.996 24.02C391.476 23.16 391.716 22.17 391.716 21.05C391.716 19.91 391.476 18.93 390.996 18.11C390.536 17.27 389.896 16.62 389.076 16.16C388.276 15.7 387.376 15.47 386.376 15.47C385.356 15.47 384.446 15.7 383.646 16.16C382.846 16.62 382.206 17.27 381.726 18.11C381.246 18.93 381.006 19.91 381.006 21.05C381.006 22.17 381.246 23.16 381.726 24.02C382.206 24.86 382.846 25.51 383.646 25.97C384.446 26.43 385.356 26.66 386.376 26.66ZM391.806 29V24.71L391.986 21.02L391.686 17.33V6.74H394.566V29H391.806ZM400.015 29V13.1H402.895V29H400.015ZM401.455 10.04C400.895 10.04 400.425 9.86 400.045 9.5C399.685 9.14 399.505 8.7 399.505 8.18C399.505 7.64 399.685 7.19 400.045 6.83C400.425 6.47 400.895 6.29 401.455 6.29C402.015 6.29 402.475 6.47 402.835 6.83C403.215 7.17 403.405 7.6 403.405 8.12C403.405 8.66 403.225 9.12 402.865 9.5C402.505 9.86 402.035 10.04 401.455 10.04ZM413.854 29.18C412.254 29.18 411.014 28.75 410.134 27.89C409.254 27.03 408.814 25.8 408.814 24.2V9.62H411.694V24.08C411.694 24.94 411.904 25.6 412.324 26.06C412.764 26.52 413.384 26.75 414.184 26.75C415.084 26.75 415.834 26.5 416.434 26L417.334 28.07C416.894 28.45 416.364 28.73 415.744 28.91C415.144 29.09 414.514 29.18 413.854 29.18ZM406.114 15.47V13.1H416.254V15.47H406.114ZM427.369 29.18C425.669 29.18 424.169 28.83 422.869 28.13C421.589 27.43 420.589 26.47 419.869 25.25C419.169 24.03 418.819 22.63 418.819 21.05C418.819 19.47 419.159 18.07 419.839 16.85C420.539 15.63 421.489 14.68 422.689 14C423.909 13.3 425.279 12.95 426.799 12.95C428.339 12.95 429.699 13.29 430.879 13.97C432.059 14.65 432.979 15.61 433.639 16.85C434.319 18.07 434.659 19.5 434.659 21.14C434.659 21.26 434.649 21.4 434.629 21.56C434.629 21.72 434.619 21.87 434.599 22.01H421.069V19.94H433.099L431.929 20.66C431.949 19.64 431.739 18.73 431.299 17.93C430.859 17.13 430.249 16.51 429.469 16.07C428.709 15.61 427.819 15.38 426.799 15.38C425.799 15.38 424.909 15.61 424.129 16.07C423.349 16.51 422.739 17.14 422.299 17.96C421.859 18.76 421.639 19.68 421.639 20.72V21.2C421.639 22.26 421.879 23.21 422.359 24.05C422.859 24.87 423.549 25.51 424.429 25.97C425.309 26.43 426.319 26.66 427.459 26.66C428.399 26.66 429.249 26.5 430.009 26.18C430.789 25.86 431.469 25.38 432.049 24.74L433.639 26.6C432.919 27.44 432.019 28.08 430.939 28.52C429.879 28.96 428.689 29.18 427.369 29.18ZM445.348 29.18C443.988 29.18 442.788 28.93 441.748 28.43C440.728 27.93 439.928 27.17 439.348 26.15C438.788 25.11 438.508 23.81 438.508 22.25V13.1H441.388V21.92C441.388 23.48 441.758 24.65 442.498 25.43C443.258 26.21 444.318 26.6 445.678 26.6C446.678 26.6 447.548 26.4 448.288 26C449.028 25.58 449.598 24.98 449.998 24.2C450.398 23.4 450.598 22.44 450.598 21.32V13.1H453.478V29H450.748V24.71L451.198 25.85C450.678 26.91 449.898 27.73 448.858 28.31C447.818 28.89 446.648 29.18 445.348 29.18ZM458.96 29V13.1H461.72V17.42L461.45 16.34C461.89 15.24 462.63 14.4 463.67 13.82C464.71 13.24 465.99 12.95 467.51 12.95V15.74C467.39 15.72 467.27 15.71 467.15 15.71C467.05 15.71 466.95 15.71 466.85 15.71C465.31 15.71 464.09 16.17 463.19 17.09C462.29 18.01 461.84 19.34 461.84 21.08V29H458.96ZM46.3096 66.18C44.9496 66.18 43.7496 65.93 42.7096 65.43C41.6896 64.93 40.8896 64.17 40.3096 63.15C39.7496 62.11 39.4696 60.81 39.4696 59.25V50.1H42.3496V58.92C42.3496 60.48 42.7196 61.65 43.4596 62.43C44.2196 63.21 45.2796 63.6 46.6396 63.6C47.6396 63.6 48.5096 63.4 49.2496 63C49.9896 62.58 50.5596 61.98 50.9596 61.2C51.3596 60.4 51.5596 59.44 51.5596 58.32V50.1H54.4396V66H51.7096V61.71L52.1596 62.85C51.6396 63.91 50.8596 64.73 49.8196 65.31C48.7796 65.89 47.6096 66.18 46.3096 66.18ZM68.4124 49.95C69.7124 49.95 70.8524 50.2 71.8324 50.7C72.8324 51.2 73.6124 51.96 74.1724 52.98C74.7324 54 75.0124 55.29 75.0124 56.85V66H72.1324V57.18C72.1324 55.64 71.7524 54.48 70.9924 53.7C70.2524 52.92 69.2024 52.53 67.8424 52.53C66.8224 52.53 65.9324 52.73 65.1724 53.13C64.4124 53.53 63.8224 54.12 63.4024 54.9C63.0024 55.68 62.8024 56.65 62.8024 57.81V66H59.9224V50.1H62.6824V54.39L62.2324 53.25C62.7524 52.21 63.5524 51.4 64.6324 50.82C65.7124 50.24 66.9724 49.95 68.4124 49.95ZM86.9123 66.18C85.3723 66.18 83.9923 65.84 82.7723 65.16C81.5723 64.48 80.6223 63.53 79.9223 62.31C79.2223 61.09 78.8723 59.67 78.8723 58.05C78.8723 56.43 79.2223 55.02 79.9223 53.82C80.6223 52.6 81.5723 51.65 82.7723 50.97C83.9923 50.29 85.3723 49.95 86.9123 49.95C88.2523 49.95 89.4623 50.25 90.5423 50.85C91.6223 51.45 92.4823 52.35 93.1223 53.55C93.7823 54.75 94.1123 56.25 94.1123 58.05C94.1123 59.85 93.7923 61.35 93.1523 62.55C92.5323 63.75 91.6823 64.66 90.6023 65.28C89.5223 65.88 88.2923 66.18 86.9123 66.18ZM87.1523 63.66C88.1523 63.66 89.0523 63.43 89.8523 62.97C90.6723 62.51 91.3123 61.86 91.7723 61.02C92.2523 60.16 92.4923 59.17 92.4923 58.05C92.4923 56.91 92.2523 55.93 91.7723 55.11C91.3123 54.27 90.6723 53.62 89.8523 53.16C89.0523 52.7 88.1523 52.47 87.1523 52.47C86.1323 52.47 85.2223 52.7 84.4223 53.16C83.6223 53.62 82.9823 54.27 82.5023 55.11C82.0223 55.93 81.7823 56.91 81.7823 58.05C81.7823 59.17 82.0223 60.16 82.5023 61.02C82.9823 61.86 83.6223 62.51 84.4223 62.97C85.2223 63.43 86.1323 63.66 87.1523 63.66ZM92.5823 66V61.71L92.7623 58.02L92.4623 54.33V43.74H95.3423V66H92.5823ZM113.018 66L106.058 50.1H109.058L115.238 64.5H113.798L120.098 50.1H122.918L115.958 66H113.018ZM132.247 66.18C130.547 66.18 129.047 65.83 127.747 65.13C126.467 64.43 125.467 63.47 124.747 62.25C124.047 61.03 123.697 59.63 123.697 58.05C123.697 56.47 124.037 55.07 124.717 53.85C125.417 52.63 126.367 51.68 127.567 51C128.787 50.3 130.157 49.95 131.677 49.95C133.217 49.95 134.577 50.29 135.757 50.97C136.937 51.65 137.857 52.61 138.517 53.85C139.197 55.07 139.537 56.5 139.537 58.14C139.537 58.26 139.527 58.4 139.507 58.56C139.507 58.72 139.497 58.87 139.477 59.01H125.947V56.94H137.977L136.807 57.66C136.827 56.64 136.617 55.73 136.177 54.93C135.737 54.13 135.127 53.51 134.347 53.07C133.587 52.61 132.697 52.38 131.677 52.38C130.677 52.38 129.787 52.61 129.007 53.07C128.227 53.51 127.617 54.14 127.177 54.96C126.737 55.76 126.517 56.68 126.517 57.72V58.2C126.517 59.26 126.757 60.21 127.237 61.05C127.737 61.87 128.427 62.51 129.307 62.97C130.187 63.43 131.197 63.66 132.337 63.66C133.277 63.66 134.127 63.5 134.887 63.18C135.667 62.86 136.347 62.38 136.927 61.74L138.517 63.6C137.797 64.44 136.897 65.08 135.817 65.52C134.757 65.96 133.567 66.18 132.247 66.18ZM143.536 66V50.1H146.296V54.42L146.026 53.34C146.466 52.24 147.206 51.4 148.246 50.82C149.286 50.24 150.566 49.95 152.086 49.95V52.74C151.966 52.72 151.846 52.71 151.726 52.71C151.626 52.71 151.526 52.71 151.426 52.71C149.886 52.71 148.666 53.17 147.766 54.09C146.866 55.01 146.416 56.34 146.416 58.08V66H143.536ZM162.059 66.18C160.519 66.18 159.139 65.84 157.919 65.16C156.719 64.48 155.769 63.53 155.069 62.31C154.369 61.09 154.019 59.67 154.019 58.05C154.019 56.43 154.369 55.02 155.069 53.82C155.769 52.6 156.719 51.65 157.919 50.97C159.139 50.29 160.519 49.95 162.059 49.95C163.399 49.95 164.609 50.25 165.689 50.85C166.769 51.45 167.629 52.35 168.269 53.55C168.929 54.75 169.259 56.25 169.259 58.05C169.259 59.85 168.939 61.35 168.299 62.55C167.679 63.75 166.829 64.66 165.749 65.28C164.669 65.88 163.439 66.18 162.059 66.18ZM162.299 63.66C163.299 63.66 164.199 63.43 164.999 62.97C165.819 62.51 166.459 61.86 166.919 61.02C167.399 60.16 167.639 59.17 167.639 58.05C167.639 56.91 167.399 55.93 166.919 55.11C166.459 54.27 165.819 53.62 164.999 53.16C164.199 52.7 163.299 52.47 162.299 52.47C161.279 52.47 160.369 52.7 159.569 53.16C158.769 53.62 158.129 54.27 157.649 55.11C157.169 55.93 156.929 56.91 156.929 58.05C156.929 59.17 157.169 60.16 157.649 61.02C158.129 61.86 158.769 62.51 159.569 62.97C160.369 63.43 161.279 63.66 162.299 63.66ZM167.729 66V61.71L167.909 58.02L167.609 54.33V43.74H170.489V66H167.729ZM175.938 66V50.1H178.818V66H175.938ZM177.378 47.04C176.818 47.04 176.348 46.86 175.968 46.5C175.608 46.14 175.428 45.7 175.428 45.18C175.428 44.64 175.608 44.19 175.968 43.83C176.348 43.47 176.818 43.29 177.378 43.29C177.938 43.29 178.398 43.47 178.758 43.83C179.138 44.17 179.328 44.6 179.328 45.12C179.328 45.66 179.148 46.12 178.788 46.5C178.428 46.86 177.958 47.04 177.378 47.04ZM191.397 66.18C189.697 66.18 188.197 65.83 186.897 65.13C185.617 64.43 184.617 63.47 183.897 62.25C183.197 61.03 182.847 59.63 182.847 58.05C182.847 56.47 183.187 55.07 183.867 53.85C184.567 52.63 185.517 51.68 186.717 51C187.937 50.3 189.307 49.95 190.827 49.95C192.367 49.95 193.727 50.29 194.907 50.97C196.087 51.65 197.007 52.61 197.667 53.85C198.347 55.07 198.687 56.5 198.687 58.14C198.687 58.26 198.677 58.4 198.657 58.56C198.657 58.72 198.647 58.87 198.627 59.01H185.097V56.94H197.127L195.957 57.66C195.977 56.64 195.767 55.73 195.327 54.93C194.887 54.13 194.277 53.51 193.497 53.07C192.737 52.61 191.847 52.38 190.827 52.38C189.827 52.38 188.937 52.61 188.157 53.07C187.377 53.51 186.767 54.14 186.327 54.96C185.887 55.76 185.667 56.68 185.667 57.72V58.2C185.667 59.26 185.907 60.21 186.387 61.05C186.887 61.87 187.577 62.51 188.457 62.97C189.337 63.43 190.347 63.66 191.487 63.66C192.427 63.66 193.277 63.5 194.037 63.18C194.817 62.86 195.497 62.38 196.077 61.74L197.667 63.6C196.947 64.44 196.047 65.08 194.967 65.52C193.907 65.96 192.717 66.18 191.397 66.18ZM211.176 49.95C212.476 49.95 213.616 50.2 214.596 50.7C215.596 51.2 216.376 51.96 216.936 52.98C217.496 54 217.776 55.29 217.776 56.85V66H214.896V57.18C214.896 55.64 214.516 54.48 213.756 53.7C213.016 52.92 211.966 52.53 210.606 52.53C209.586 52.53 208.696 52.73 207.936 53.13C207.176 53.53 206.586 54.12 206.166 54.9C205.766 55.68 205.566 56.65 205.566 57.81V66H202.686V50.1H205.446V54.39L204.996 53.25C205.516 52.21 206.316 51.4 207.396 50.82C208.476 50.24 209.736 49.95 211.176 49.95ZM230.186 66.18C228.486 66.18 226.986 65.83 225.686 65.13C224.406 64.43 223.406 63.47 222.686 62.25C221.986 61.03 221.636 59.63 221.636 58.05C221.636 56.47 221.976 55.07 222.656 53.85C223.356 52.63 224.306 51.68 225.506 51C226.726 50.3 228.096 49.95 229.616 49.95C231.156 49.95 232.516 50.29 233.696 50.97C234.876 51.65 235.796 52.61 236.456 53.85C237.136 55.07 237.476 56.5 237.476 58.14C237.476 58.26 237.466 58.4 237.446 58.56C237.446 58.72 237.436 58.87 237.416 59.01H223.886V56.94H235.916L234.746 57.66C234.766 56.64 234.556 55.73 234.116 54.93C233.676 54.13 233.066 53.51 232.286 53.07C231.526 52.61 230.636 52.38 229.616 52.38C228.616 52.38 227.726 52.61 226.946 53.07C226.166 53.51 225.556 54.14 225.116 54.96C224.676 55.76 224.456 56.68 224.456 57.72V58.2C224.456 59.26 224.696 60.21 225.176 61.05C225.676 61.87 226.366 62.51 227.246 62.97C228.126 63.43 229.136 63.66 230.276 63.66C231.216 63.66 232.066 63.5 232.826 63.18C233.606 62.86 234.286 62.38 234.866 61.74L236.456 63.6C235.736 64.44 234.836 65.08 233.756 65.52C232.696 65.96 231.506 66.18 230.186 66.18ZM248.002 66V64.14L258.202 51.48L258.772 52.47H248.182V50.1H261.082V51.99L250.882 64.62L250.222 63.63H261.322V66H248.002ZM271.866 66.18C270.506 66.18 269.306 65.93 268.266 65.43C267.246 64.93 266.446 64.17 265.866 63.15C265.306 62.11 265.026 60.81 265.026 59.25V50.1H267.906V58.92C267.906 60.48 268.276 61.65 269.016 62.43C269.776 63.21 270.836 63.6 272.196 63.6C273.196 63.6 274.066 63.4 274.806 63C275.546 62.58 276.116 61.98 276.516 61.2C276.916 60.4 277.116 59.44 277.116 58.32V50.1H279.996V66H277.266V61.71L277.716 62.85C277.196 63.91 276.416 64.73 275.376 65.31C274.336 65.89 273.166 66.18 271.866 66.18ZM290.039 66.18C288.719 66.18 287.459 66 286.259 65.64C285.079 65.28 284.149 64.84 283.469 64.32L284.669 62.04C285.349 62.5 286.189 62.89 287.189 63.21C288.189 63.53 289.209 63.69 290.249 63.69C291.589 63.69 292.549 63.5 293.129 63.12C293.729 62.74 294.029 62.21 294.029 61.53C294.029 61.03 293.849 60.64 293.489 60.36C293.129 60.08 292.649 59.87 292.049 59.73C291.469 59.59 290.819 59.47 290.099 59.37C289.379 59.25 288.659 59.11 287.939 58.95C287.219 58.77 286.559 58.53 285.959 58.23C285.359 57.91 284.879 57.48 284.519 56.94C284.159 56.38 283.979 55.64 283.979 54.72C283.979 53.76 284.249 52.92 284.789 52.2C285.329 51.48 286.089 50.93 287.069 50.55C288.069 50.15 289.249 49.95 290.609 49.95C291.649 49.95 292.699 50.08 293.759 50.34C294.839 50.58 295.719 50.93 296.399 51.39L295.169 53.67C294.449 53.19 293.699 52.86 292.919 52.68C292.139 52.5 291.359 52.41 290.579 52.41C289.319 52.41 288.379 52.62 287.759 53.04C287.139 53.44 286.829 53.96 286.829 54.6C286.829 55.14 287.009 55.56 287.369 55.86C287.749 56.14 288.229 56.36 288.809 56.52C289.409 56.68 290.069 56.82 290.789 56.94C291.509 57.04 292.229 57.18 292.949 57.36C293.669 57.52 294.319 57.75 294.899 58.05C295.499 58.35 295.979 58.77 296.339 59.31C296.719 59.85 296.909 60.57 296.909 61.47C296.909 62.43 296.629 63.26 296.069 63.96C295.509 64.66 294.719 65.21 293.699 65.61C292.679 65.99 291.459 66.18 290.039 66.18ZM310.378 66V62.64L310.228 62.01V56.28C310.228 55.06 309.868 54.12 309.148 53.46C308.448 52.78 307.388 52.44 305.968 52.44C305.028 52.44 304.108 52.6 303.208 52.92C302.308 53.22 301.548 53.63 300.928 54.15L299.728 51.99C300.548 51.33 301.528 50.83 302.668 50.49C303.828 50.13 305.038 49.95 306.298 49.95C308.478 49.95 310.158 50.48 311.338 51.54C312.518 52.6 313.108 54.22 313.108 56.4V66H310.378ZM305.158 66.18C303.978 66.18 302.938 65.98 302.038 65.58C301.158 65.18 300.478 64.63 299.998 63.93C299.518 63.21 299.278 62.4 299.278 61.5C299.278 60.64 299.478 59.86 299.878 59.16C300.298 58.46 300.968 57.9 301.888 57.48C302.828 57.06 304.088 56.85 305.668 56.85H310.708V58.92H305.788C304.348 58.92 303.378 59.16 302.878 59.64C302.378 60.12 302.128 60.7 302.128 61.38C302.128 62.16 302.438 62.79 303.058 63.27C303.678 63.73 304.538 63.96 305.638 63.96C306.718 63.96 307.658 63.72 308.458 63.24C309.278 62.76 309.868 62.06 310.228 61.14L310.798 63.12C310.418 64.06 309.748 64.81 308.788 65.37C307.828 65.91 306.618 66.18 305.158 66.18ZM309.298 47.28C308.878 47.28 308.518 47.14 308.218 46.86C307.918 46.56 307.768 46.19 307.768 45.75C307.768 45.29 307.918 44.92 308.218 44.64C308.518 44.34 308.878 44.19 309.298 44.19C309.718 44.19 310.078 44.34 310.378 44.64C310.678 44.92 310.828 45.29 310.828 45.75C310.828 46.19 310.678 46.56 310.378 46.86C310.078 47.14 309.718 47.28 309.298 47.28ZM303.718 47.28C303.298 47.28 302.938 47.14 302.638 46.86C302.338 46.56 302.188 46.19 302.188 45.75C302.188 45.29 302.338 44.92 302.638 44.64C302.938 44.34 303.298 44.19 303.718 44.19C304.138 44.19 304.498 44.34 304.798 44.64C305.098 44.92 305.248 45.29 305.248 45.75C305.248 46.19 305.098 46.56 304.798 46.86C304.498 47.14 304.138 47.28 303.718 47.28ZM323.898 66.18C322.298 66.18 321.058 65.75 320.178 64.89C319.298 64.03 318.858 62.8 318.858 61.2V46.62H321.738V61.08C321.738 61.94 321.948 62.6 322.368 63.06C322.808 63.52 323.428 63.75 324.228 63.75C325.128 63.75 325.878 63.5 326.478 63L327.378 65.07C326.938 65.45 326.408 65.73 325.788 65.91C325.188 66.09 324.558 66.18 323.898 66.18ZM316.158 52.47V50.1H326.298V52.47H316.158ZM329.33 66V64.14L339.53 51.48L340.1 52.47H329.51V50.1H342.41V51.99L332.21 64.62L331.55 63.63H342.65V66H329.33ZM346.504 66V43.74H349.384V66H346.504ZM354.883 66V50.1H357.763V66H354.883ZM356.323 47.04C355.763 47.04 355.293 46.86 354.913 46.5C354.553 46.14 354.373 45.7 354.373 45.18C354.373 44.64 354.553 44.19 354.913 43.83C355.293 43.47 355.763 43.29 356.323 43.29C356.883 43.29 357.343 43.47 357.703 43.83C358.083 44.17 358.273 44.6 358.273 45.12C358.273 45.66 358.093 46.12 357.733 46.5C357.373 46.86 356.903 47.04 356.323 47.04ZM370.192 66.18C368.572 66.18 367.122 65.83 365.842 65.13C364.582 64.43 363.592 63.47 362.872 62.25C362.152 61.03 361.792 59.63 361.792 58.05C361.792 56.47 362.152 55.07 362.872 53.85C363.592 52.63 364.582 51.68 365.842 51C367.122 50.3 368.572 49.95 370.192 49.95C371.632 49.95 372.912 50.24 374.032 50.82C375.172 51.38 376.052 52.22 376.672 53.34L374.482 54.75C373.962 53.97 373.322 53.4 372.562 53.04C371.822 52.66 371.022 52.47 370.162 52.47C369.122 52.47 368.192 52.7 367.372 53.16C366.552 53.62 365.902 54.27 365.422 55.11C364.942 55.93 364.702 56.91 364.702 58.05C364.702 59.19 364.942 60.18 365.422 61.02C365.902 61.86 366.552 62.51 367.372 62.97C368.192 63.43 369.122 63.66 370.162 63.66C371.022 63.66 371.822 63.48 372.562 63.12C373.322 62.74 373.962 62.16 374.482 61.38L376.672 62.76C376.052 63.86 375.172 64.71 374.032 65.31C372.912 65.89 371.632 66.18 370.192 66.18ZM388.686 49.95C389.986 49.95 391.126 50.2 392.106 50.7C393.106 51.2 393.886 51.96 394.446 52.98C395.006 54 395.286 55.29 395.286 56.85V66H392.406V57.18C392.406 55.64 392.026 54.48 391.266 53.7C390.526 52.92 389.476 52.53 388.116 52.53C387.096 52.53 386.206 52.73 385.446 53.13C384.686 53.53 384.096 54.12 383.676 54.9C383.276 55.68 383.076 56.65 383.076 57.81V66H380.196V43.74H383.076V54.39L382.506 53.25C383.026 52.21 383.826 51.4 384.906 50.82C385.986 50.24 387.246 49.95 388.686 49.95ZM418.572 66.24C416.952 66.24 415.462 65.98 414.102 65.46C412.742 64.92 411.562 64.17 410.562 63.21C409.562 62.23 408.782 61.09 408.222 59.79C407.662 58.49 407.382 57.06 407.382 55.5C407.382 53.94 407.662 52.51 408.222 51.21C408.782 49.91 409.562 48.78 410.562 47.82C411.582 46.84 412.772 46.09 414.132 45.57C415.492 45.03 416.992 44.76 418.632 44.76C420.292 44.76 421.812 45.03 423.192 45.57C424.572 46.11 425.742 46.92 426.702 48L424.842 49.86C423.982 49.02 423.042 48.41 422.022 48.03C421.022 47.63 419.932 47.43 418.752 47.43C417.552 47.43 416.432 47.63 415.392 48.03C414.372 48.43 413.482 48.99 412.722 49.71C411.982 50.43 411.402 51.29 410.982 52.29C410.582 53.27 410.382 54.34 410.382 55.5C410.382 56.64 410.582 57.71 410.982 58.71C411.402 59.69 411.982 60.55 412.722 61.29C413.482 62.01 414.372 62.57 415.392 62.97C416.412 63.37 417.522 63.57 418.722 63.57C419.842 63.57 420.912 63.4 421.932 63.06C422.972 62.7 423.932 62.11 424.812 61.29L426.522 63.57C425.482 64.45 424.262 65.12 422.862 65.58C421.482 66.02 420.052 66.24 418.572 66.24ZM423.642 63.18V55.38H426.522V63.57L423.642 63.18ZM438.926 66.18C437.226 66.18 435.726 65.83 434.426 65.13C433.146 64.43 432.146 63.47 431.426 62.25C430.726 61.03 430.376 59.63 430.376 58.05C430.376 56.47 430.716 55.07 431.396 53.85C432.096 52.63 433.046 51.68 434.246 51C435.466 50.3 436.836 49.95 438.356 49.95C439.896 49.95 441.256 50.29 442.436 50.97C443.616 51.65 444.536 52.61 445.196 53.85C445.876 55.07 446.216 56.5 446.216 58.14C446.216 58.26 446.206 58.4 446.186 58.56C446.186 58.72 446.176 58.87 446.156 59.01H432.626V56.94H444.656L443.486 57.66C443.506 56.64 443.296 55.73 442.856 54.93C442.416 54.13 441.806 53.51 441.026 53.07C440.266 52.61 439.376 52.38 438.356 52.38C437.356 52.38 436.466 52.61 435.686 53.07C434.906 53.51 434.296 54.14 433.856 54.96C433.416 55.76 433.196 56.68 433.196 57.72V58.2C433.196 59.26 433.436 60.21 433.916 61.05C434.416 61.87 435.106 62.51 435.986 62.97C436.866 63.43 437.876 63.66 439.016 63.66C439.956 63.66 440.806 63.5 441.566 63.18C442.346 62.86 443.026 62.38 443.606 61.74L445.196 63.6C444.476 64.44 443.576 65.08 442.496 65.52C441.436 65.96 440.246 66.18 438.926 66.18ZM450.215 66V43.74H453.095V66H450.215ZM465.164 66.18C463.624 66.18 462.244 65.84 461.024 65.16C459.824 64.48 458.874 63.53 458.174 62.31C457.474 61.09 457.124 59.67 457.124 58.05C457.124 56.43 457.474 55.02 458.174 53.82C458.874 52.6 459.824 51.65 461.024 50.97C462.244 50.29 463.624 49.95 465.164 49.95C466.504 49.95 467.714 50.25 468.794 50.85C469.874 51.45 470.734 52.35 471.374 53.55C472.034 54.75 472.364 56.25 472.364 58.05C472.364 59.85 472.044 61.35 471.404 62.55C470.784 63.75 469.934 64.66 468.854 65.28C467.774 65.88 466.544 66.18 465.164 66.18ZM465.404 63.66C466.404 63.66 467.304 63.43 468.104 62.97C468.924 62.51 469.564 61.86 470.024 61.02C470.504 60.16 470.744 59.17 470.744 58.05C470.744 56.91 470.504 55.93 470.024 55.11C469.564 54.27 468.924 53.62 468.104 53.16C467.304 52.7 466.404 52.47 465.404 52.47C464.384 52.47 463.474 52.7 462.674 53.16C461.874 53.62 461.234 54.27 460.754 55.11C460.274 55.93 460.034 56.91 460.034 58.05C460.034 59.17 460.274 60.16 460.754 61.02C461.234 61.86 461.874 62.51 462.674 62.97C463.474 63.43 464.384 63.66 465.404 63.66ZM470.834 66V61.71L471.014 58.02L470.714 54.33V43.74H473.594V66H470.834ZM477.903 70.44L479.403 64.38L479.793 66.12C479.213 66.12 478.723 65.94 478.323 65.58C477.943 65.22 477.753 64.73 477.753 64.11C477.753 63.51 477.943 63.02 478.323 62.64C478.723 62.26 479.203 62.07 479.763 62.07C480.343 62.07 480.813 62.27 481.173 62.67C481.533 63.05 481.713 63.53 481.713 64.11C481.713 64.31 481.693 64.51 481.653 64.71C481.633 64.89 481.583 65.11 481.503 65.37C481.443 65.61 481.343 65.91 481.203 66.27L479.793 70.44H477.903ZM49.5366 103V87.1H52.4166V103H49.5366ZM50.9766 84.04C50.4166 84.04 49.9466 83.86 49.5666 83.5C49.2066 83.14 49.0266 82.7 49.0266 82.18C49.0266 81.64 49.2066 81.19 49.5666 80.83C49.9466 80.47 50.4166 80.29 50.9766 80.29C51.5366 80.29 51.9966 80.47 52.3566 80.83C52.7366 81.17 52.9266 81.6 52.9266 82.12C52.9266 82.66 52.7466 83.12 52.3866 83.5C52.0266 83.86 51.5566 84.04 50.9766 84.04ZM66.4055 86.95C67.7055 86.95 68.8455 87.2 69.8255 87.7C70.8255 88.2 71.6055 88.96 72.1655 89.98C72.7255 91 73.0055 92.29 73.0055 93.85V103H70.1255V94.18C70.1255 92.64 69.7455 91.48 68.9855 90.7C68.2455 89.92 67.1955 89.53 65.8355 89.53C64.8155 89.53 63.9255 89.73 63.1655 90.13C62.4055 90.53 61.8155 91.12 61.3955 91.9C60.9955 92.68 60.7955 93.65 60.7955 94.81V103H57.9155V87.1H60.6755V91.39L60.2255 90.25C60.7455 89.21 61.5455 88.4 62.6255 87.82C63.7055 87.24 64.9655 86.95 66.4055 86.95ZM84.9055 103.18C83.3655 103.18 81.9855 102.84 80.7655 102.16C79.5655 101.48 78.6155 100.53 77.9155 99.31C77.2155 98.09 76.8655 96.67 76.8655 95.05C76.8655 93.43 77.2155 92.02 77.9155 90.82C78.6155 89.6 79.5655 88.65 80.7655 87.97C81.9855 87.29 83.3655 86.95 84.9055 86.95C86.2455 86.95 87.4555 87.25 88.5355 87.85C89.6155 88.45 90.4755 89.35 91.1155 90.55C91.7755 91.75 92.1055 93.25 92.1055 95.05C92.1055 96.85 91.7855 98.35 91.1455 99.55C90.5255 100.75 89.6755 101.66 88.5955 102.28C87.5155 102.88 86.2855 103.18 84.9055 103.18ZM85.1455 100.66C86.1455 100.66 87.0455 100.43 87.8455 99.97C88.6655 99.51 89.3055 98.86 89.7655 98.02C90.2455 97.16 90.4855 96.17 90.4855 95.05C90.4855 93.91 90.2455 92.93 89.7655 92.11C89.3055 91.27 88.6655 90.62 87.8455 90.16C87.0455 89.7 86.1455 89.47 85.1455 89.47C84.1255 89.47 83.2155 89.7 82.4155 90.16C81.6155 90.62 80.9755 91.27 80.4955 92.11C80.0155 92.93 79.7755 93.91 79.7755 95.05C79.7755 96.17 80.0155 97.16 80.4955 98.02C80.9755 98.86 81.6155 99.51 82.4155 99.97C83.2155 100.43 84.1255 100.66 85.1455 100.66ZM90.5755 103V98.71L90.7555 95.02L90.4555 91.33V80.74H93.3355V103H90.5755ZM105.865 103.18C104.165 103.18 102.665 102.83 101.365 102.13C100.085 101.43 99.0847 100.47 98.3647 99.25C97.6647 98.03 97.3147 96.63 97.3147 95.05C97.3147 93.47 97.6547 92.07 98.3347 90.85C99.0347 89.63 99.9847 88.68 101.185 88C102.405 87.3 103.775 86.95 105.295 86.95C106.835 86.95 108.195 87.29 109.375 87.97C110.555 88.65 111.475 89.61 112.135 90.85C112.815 92.07 113.155 93.5 113.155 95.14C113.155 95.26 113.145 95.4 113.125 95.56C113.125 95.72 113.115 95.87 113.095 96.01H99.5647V93.94H111.595L110.425 94.66C110.445 93.64 110.235 92.73 109.795 91.93C109.355 91.13 108.745 90.51 107.965 90.07C107.205 89.61 106.315 89.38 105.295 89.38C104.295 89.38 103.405 89.61 102.625 90.07C101.845 90.51 101.235 91.14 100.795 91.96C100.355 92.76 100.135 93.68 100.135 94.72V95.2C100.135 96.26 100.375 97.21 100.855 98.05C101.355 98.87 102.045 99.51 102.925 99.97C103.805 100.43 104.815 100.66 105.955 100.66C106.895 100.66 107.745 100.5 108.505 100.18C109.285 99.86 109.965 99.38 110.545 98.74L112.135 100.6C111.415 101.44 110.515 102.08 109.435 102.52C108.375 102.96 107.185 103.18 105.865 103.18ZM137.044 86.95C138.324 86.95 139.454 87.2 140.434 87.7C141.414 88.2 142.174 88.96 142.714 89.98C143.274 91 143.554 92.29 143.554 93.85V103H140.674V94.18C140.674 92.64 140.314 91.48 139.594 90.7C138.874 89.92 137.864 89.53 136.564 89.53C135.604 89.53 134.764 89.73 134.044 90.13C133.324 90.53 132.764 91.12 132.364 91.9C131.984 92.68 131.794 93.65 131.794 94.81V103H128.914V94.18C128.914 92.64 128.554 91.48 127.834 90.7C127.134 89.92 126.124 89.53 124.804 89.53C123.864 89.53 123.034 89.73 122.314 90.13C121.594 90.53 121.034 91.12 120.634 91.9C120.234 92.68 120.034 93.65 120.034 94.81V103H117.154V87.1H119.914V91.33L119.464 90.25C119.964 89.21 120.734 88.4 121.774 87.82C122.814 87.24 124.024 86.95 125.404 86.95C126.924 86.95 128.234 87.33 129.334 88.09C130.434 88.83 131.154 89.96 131.494 91.48L130.324 91C130.804 89.78 131.644 88.8 132.844 88.06C134.044 87.32 135.444 86.95 137.044 86.95ZM163.48 103.18C161.94 103.18 160.56 102.84 159.34 102.16C158.14 101.48 157.19 100.53 156.49 99.31C155.79 98.09 155.44 96.67 155.44 95.05C155.44 93.43 155.79 92.02 156.49 90.82C157.19 89.6 158.14 88.65 159.34 87.97C160.56 87.29 161.94 86.95 163.48 86.95C164.82 86.95 166.03 87.25 167.11 87.85C168.19 88.45 169.05 89.35 169.69 90.55C170.35 91.75 170.68 93.25 170.68 95.05C170.68 96.85 170.36 98.35 169.72 99.55C169.1 100.75 168.25 101.66 167.17 102.28C166.09 102.88 164.86 103.18 163.48 103.18ZM163.72 100.66C164.72 100.66 165.62 100.43 166.42 99.97C167.24 99.51 167.88 98.86 168.34 98.02C168.82 97.16 169.06 96.17 169.06 95.05C169.06 93.91 168.82 92.93 168.34 92.11C167.88 91.27 167.24 90.62 166.42 90.16C165.62 89.7 164.72 89.47 163.72 89.47C162.7 89.47 161.79 89.7 160.99 90.16C160.19 90.62 159.55 91.27 159.07 92.11C158.59 92.93 158.35 93.91 158.35 95.05C158.35 96.17 158.59 97.16 159.07 98.02C159.55 98.86 160.19 99.51 160.99 99.97C161.79 100.43 162.7 100.66 163.72 100.66ZM169.15 103V98.71L169.33 95.02L169.03 91.33V80.74H171.91V103H169.15ZM184.049 103.18C182.689 103.18 181.489 102.93 180.449 102.43C179.429 101.93 178.629 101.17 178.049 100.15C177.489 99.11 177.209 97.81 177.209 96.25V87.1H180.089V95.92C180.089 97.48 180.459 98.65 181.199 99.43C181.959 100.21 183.019 100.6 184.379 100.6C185.379 100.6 186.249 100.4 186.989 100C187.729 99.58 188.299 98.98 188.699 98.2C189.099 97.4 189.299 96.44 189.299 95.32V87.1H192.179V103H189.449V98.71L189.899 99.85C189.379 100.91 188.599 101.73 187.559 102.31C186.519 102.89 185.349 103.18 184.049 103.18ZM210.968 103L203.948 82H207.038L213.488 101.38H211.928L218.618 82H221.378L227.918 101.38H226.418L232.958 82H235.808L228.788 103H225.638L219.518 85.03H220.328L214.178 103H210.968ZM247.727 103V99.64L247.577 99.01V93.28C247.577 92.06 247.217 91.12 246.497 90.46C245.797 89.78 244.737 89.44 243.317 89.44C242.377 89.44 241.457 89.6 240.557 89.92C239.657 90.22 238.897 90.63 238.277 91.15L237.077 88.99C237.897 88.33 238.877 87.83 240.017 87.49C241.177 87.13 242.387 86.95 243.647 86.95C245.827 86.95 247.507 87.48 248.687 88.54C249.867 89.6 250.457 91.22 250.457 93.4V103H247.727ZM242.507 103.18C241.327 103.18 240.287 102.98 239.387 102.58C238.507 102.18 237.827 101.63 237.347 100.93C236.867 100.21 236.627 99.4 236.627 98.5C236.627 97.64 236.827 96.86 237.227 96.16C237.647 95.46 238.317 94.9 239.237 94.48C240.177 94.06 241.437 93.85 243.017 93.85H248.057V95.92H243.137C241.697 95.92 240.727 96.16 240.227 96.64C239.727 97.12 239.477 97.7 239.477 98.38C239.477 99.16 239.787 99.79 240.407 100.27C241.027 100.73 241.887 100.96 242.987 100.96C244.067 100.96 245.007 100.72 245.807 100.24C246.627 99.76 247.217 99.06 247.577 98.14L248.147 100.12C247.767 101.06 247.097 101.81 246.137 102.37C245.177 102.91 243.967 103.18 242.507 103.18ZM255.787 103V87.1H258.547V91.42L258.277 90.34C258.717 89.24 259.457 88.4 260.497 87.82C261.537 87.24 262.817 86.95 264.337 86.95V89.74C264.217 89.72 264.097 89.71 263.977 89.71C263.877 89.71 263.777 89.71 263.677 89.71C262.137 89.71 260.917 90.17 260.017 91.09C259.117 92.01 258.667 93.34 258.667 95.08V103H255.787ZM274.82 103.18C273.12 103.18 271.62 102.83 270.32 102.13C269.04 101.43 268.04 100.47 267.32 99.25C266.62 98.03 266.27 96.63 266.27 95.05C266.27 93.47 266.61 92.07 267.29 90.85C267.99 89.63 268.94 88.68 270.14 88C271.36 87.3 272.73 86.95 274.25 86.95C275.79 86.95 277.15 87.29 278.33 87.97C279.51 88.65 280.43 89.61 281.09 90.85C281.77 92.07 282.11 93.5 282.11 95.14C282.11 95.26 282.1 95.4 282.08 95.56C282.08 95.72 282.07 95.87 282.05 96.01H268.52V93.94H280.55L279.38 94.66C279.4 93.64 279.19 92.73 278.75 91.93C278.31 91.13 277.7 90.51 276.92 90.07C276.16 89.61 275.27 89.38 274.25 89.38C273.25 89.38 272.36 89.61 271.58 90.07C270.8 90.51 270.19 91.14 269.75 91.96C269.31 92.76 269.09 93.68 269.09 94.72V95.2C269.09 96.26 269.33 97.21 269.81 98.05C270.31 98.87 271 99.51 271.88 99.97C272.76 100.43 273.77 100.66 274.91 100.66C275.85 100.66 276.7 100.5 277.46 100.18C278.24 99.86 278.92 99.38 279.5 98.74L281.09 100.6C280.37 101.44 279.47 102.08 278.39 102.52C277.33 102.96 276.14 103.18 274.82 103.18ZM294.599 86.95C295.899 86.95 297.039 87.2 298.019 87.7C299.019 88.2 299.799 88.96 300.359 89.98C300.919 91 301.199 92.29 301.199 93.85V103H298.319V94.18C298.319 92.64 297.939 91.48 297.179 90.7C296.439 89.92 295.389 89.53 294.029 89.53C293.009 89.53 292.119 89.73 291.359 90.13C290.599 90.53 290.009 91.12 289.589 91.9C289.189 92.68 288.989 93.65 288.989 94.81V103H286.109V87.1H288.869V91.39L288.419 90.25C288.939 89.21 289.739 88.4 290.819 87.82C291.899 87.24 293.159 86.95 294.599 86.95ZM334.475 86.95C335.755 86.95 336.885 87.2 337.865 87.7C338.845 88.2 339.605 88.96 340.145 89.98C340.705 91 340.985 92.29 340.985 93.85V103H338.105V94.18C338.105 92.64 337.745 91.48 337.025 90.7C336.305 89.92 335.295 89.53 333.995 89.53C333.035 89.53 332.195 89.73 331.475 90.13C330.755 90.53 330.195 91.12 329.795 91.9C329.415 92.68 329.225 93.65 329.225 94.81V103H326.345V94.18C326.345 92.64 325.985 91.48 325.265 90.7C324.565 89.92 323.555 89.53 322.235 89.53C321.295 89.53 320.465 89.73 319.745 90.13C319.025 90.53 318.465 91.12 318.065 91.9C317.665 92.68 317.465 93.65 317.465 94.81V103H314.585V87.1H317.345V91.33L316.895 90.25C317.395 89.21 318.165 88.4 319.205 87.82C320.245 87.24 321.455 86.95 322.835 86.95C324.355 86.95 325.665 87.33 326.765 88.09C327.865 88.83 328.585 89.96 328.925 91.48L327.755 91C328.235 89.78 329.075 88.8 330.275 88.06C331.475 87.32 332.875 86.95 334.475 86.95ZM346.285 103V87.1H349.165V103H346.285ZM347.725 84.04C347.165 84.04 346.695 83.86 346.315 83.5C345.955 83.14 345.775 82.7 345.775 82.18C345.775 81.64 345.955 81.19 346.315 80.83C346.695 80.47 347.165 80.29 347.725 80.29C348.285 80.29 348.745 80.47 349.105 80.83C349.485 81.17 349.675 81.6 349.675 82.12C349.675 82.66 349.495 83.12 349.135 83.5C348.775 83.86 348.305 84.04 347.725 84.04ZM360.124 103.18C358.524 103.18 357.284 102.75 356.404 101.89C355.524 101.03 355.084 99.8 355.084 98.2V83.62H357.964V98.08C357.964 98.94 358.174 99.6 358.594 100.06C359.034 100.52 359.654 100.75 360.454 100.75C361.354 100.75 362.104 100.5 362.704 100L363.604 102.07C363.164 102.45 362.634 102.73 362.014 102.91C361.414 103.09 360.784 103.18 360.124 103.18ZM352.384 89.47V87.1H362.524V89.47H352.384ZM375.575 86.95C376.875 86.95 378.015 87.2 378.995 87.7C379.995 88.2 380.775 88.96 381.335 89.98C381.895 91 382.175 92.29 382.175 93.85V103H379.295V94.18C379.295 92.64 378.915 91.48 378.155 90.7C377.415 89.92 376.365 89.53 375.005 89.53C373.985 89.53 373.095 89.73 372.335 90.13C371.575 90.53 370.985 91.12 370.565 91.9C370.165 92.68 369.965 93.65 369.965 94.81V103H367.085V87.1H369.845V91.39L369.395 90.25C369.915 89.21 370.715 88.4 371.795 87.82C372.875 87.24 374.135 86.95 375.575 86.95ZM397.375 103V99.64L397.225 99.01V93.28C397.225 92.06 396.865 91.12 396.145 90.46C395.445 89.78 394.385 89.44 392.965 89.44C392.025 89.44 391.105 89.6 390.205 89.92C389.305 90.22 388.545 90.63 387.925 91.15L386.725 88.99C387.545 88.33 388.525 87.83 389.665 87.49C390.825 87.13 392.035 86.95 393.295 86.95C395.475 86.95 397.155 87.48 398.335 88.54C399.515 89.6 400.105 91.22 400.105 93.4V103H397.375ZM392.155 103.18C390.975 103.18 389.935 102.98 389.035 102.58C388.155 102.18 387.475 101.63 386.995 100.93C386.515 100.21 386.275 99.4 386.275 98.5C386.275 97.64 386.475 96.86 386.875 96.16C387.295 95.46 387.965 94.9 388.885 94.48C389.825 94.06 391.085 93.85 392.665 93.85H397.705V95.92H392.785C391.345 95.92 390.375 96.16 389.875 96.64C389.375 97.12 389.125 97.7 389.125 98.38C389.125 99.16 389.435 99.79 390.055 100.27C390.675 100.73 391.535 100.96 392.635 100.96C393.715 100.96 394.655 100.72 395.455 100.24C396.275 99.76 396.865 99.06 397.225 98.14L397.795 100.12C397.415 101.06 396.745 101.81 395.785 102.37C394.825 102.91 393.615 103.18 392.155 103.18ZM413.925 86.95C415.225 86.95 416.365 87.2 417.345 87.7C418.345 88.2 419.125 88.96 419.685 89.98C420.245 91 420.525 92.29 420.525 93.85V103H417.645V94.18C417.645 92.64 417.265 91.48 416.505 90.7C415.765 89.92 414.715 89.53 413.355 89.53C412.335 89.53 411.445 89.73 410.685 90.13C409.925 90.53 409.335 91.12 408.915 91.9C408.515 92.68 408.315 93.65 408.315 94.81V103H405.435V80.74H408.315V91.39L407.745 90.25C408.265 89.21 409.065 88.4 410.145 87.82C411.225 87.24 412.485 86.95 413.925 86.95ZM445.745 86.95C447.025 86.95 448.155 87.2 449.135 87.7C450.115 88.2 450.875 88.96 451.415 89.98C451.975 91 452.255 92.29 452.255 93.85V103H449.375V94.18C449.375 92.64 449.015 91.48 448.295 90.7C447.575 89.92 446.565 89.53 445.265 89.53C444.305 89.53 443.465 89.73 442.745 90.13C442.025 90.53 441.465 91.12 441.065 91.9C440.685 92.68 440.495 93.65 440.495 94.81V103H437.615V94.18C437.615 92.64 437.255 91.48 436.535 90.7C435.835 89.92 434.825 89.53 433.505 89.53C432.565 89.53 431.735 89.73 431.015 90.13C430.295 90.53 429.735 91.12 429.335 91.9C428.935 92.68 428.735 93.65 428.735 94.81V103H425.855V87.1H428.615V91.33L428.165 90.25C428.665 89.21 429.435 88.4 430.475 87.82C431.515 87.24 432.725 86.95 434.105 86.95C435.625 86.95 436.935 87.33 438.035 88.09C439.135 88.83 439.855 89.96 440.195 91.48L439.025 91C439.505 89.78 440.345 88.8 441.545 88.06C442.745 87.32 444.145 86.95 445.745 86.95ZM464.634 103.18C462.934 103.18 461.434 102.83 460.134 102.13C458.854 101.43 457.854 100.47 457.134 99.25C456.434 98.03 456.084 96.63 456.084 95.05C456.084 93.47 456.424 92.07 457.104 90.85C457.804 89.63 458.754 88.68 459.954 88C461.174 87.3 462.544 86.95 464.064 86.95C465.604 86.95 466.964 87.29 468.144 87.97C469.324 88.65 470.244 89.61 470.904 90.85C471.584 92.07 471.924 93.5 471.924 95.14C471.924 95.26 471.914 95.4 471.894 95.56C471.894 95.72 471.884 95.87 471.864 96.01H458.334V93.94H470.364L469.194 94.66C469.214 93.64 469.004 92.73 468.564 91.93C468.124 91.13 467.514 90.51 466.734 90.07C465.974 89.61 465.084 89.38 464.064 89.38C463.064 89.38 462.174 89.61 461.394 90.07C460.614 90.51 460.004 91.14 459.564 91.96C459.124 92.76 458.904 93.68 458.904 94.72V95.2C458.904 96.26 459.144 97.21 459.624 98.05C460.124 98.87 460.814 99.51 461.694 99.97C462.574 100.43 463.584 100.66 464.724 100.66C465.664 100.66 466.514 100.5 467.274 100.18C468.054 99.86 468.734 99.38 469.314 98.74L470.904 100.6C470.184 101.44 469.284 102.08 468.204 102.52C467.144 102.96 465.954 103.18 464.634 103.18ZM200.969 140V136.64L200.819 136.01V130.28C200.819 129.06 200.459 128.12 199.739 127.46C199.039 126.78 197.979 126.44 196.559 126.44C195.619 126.44 194.699 126.6 193.799 126.92C192.899 127.22 192.139 127.63 191.519 128.15L190.319 125.99C191.139 125.33 192.119 124.83 193.259 124.49C194.419 124.13 195.629 123.95 196.889 123.95C199.069 123.95 200.749 124.48 201.929 125.54C203.109 126.6 203.699 128.22 203.699 130.4V140H200.969ZM195.749 140.18C194.569 140.18 193.529 139.98 192.629 139.58C191.749 139.18 191.069 138.63 190.589 137.93C190.109 137.21 189.869 136.4 189.869 135.5C189.869 134.64 190.069 133.86 190.469 133.16C190.889 132.46 191.559 131.9 192.479 131.48C193.419 131.06 194.679 130.85 196.259 130.85H201.299V132.92H196.379C194.939 132.92 193.969 133.16 193.469 133.64C192.969 134.12 192.719 134.7 192.719 135.38C192.719 136.16 193.029 136.79 193.649 137.27C194.269 137.73 195.129 137.96 196.229 137.96C197.309 137.96 198.249 137.72 199.049 137.24C199.869 136.76 200.459 136.06 200.819 135.14L201.389 137.12C201.009 138.06 200.339 138.81 199.379 139.37C198.419 139.91 197.209 140.18 195.749 140.18ZM217.519 123.95C218.819 123.95 219.959 124.2 220.939 124.7C221.939 125.2 222.719 125.96 223.279 126.98C223.839 128 224.119 129.29 224.119 130.85V140H221.239V131.18C221.239 129.64 220.859 128.48 220.099 127.7C219.359 126.92 218.309 126.53 216.949 126.53C215.929 126.53 215.039 126.73 214.279 127.13C213.519 127.53 212.929 128.12 212.509 128.9C212.109 129.68 211.909 130.65 211.909 131.81V140H209.029V124.1H211.789V128.39L211.339 127.25C211.859 126.21 212.659 125.4 213.739 124.82C214.819 124.24 216.079 123.95 217.519 123.95ZM237.879 140.18C236.519 140.18 235.289 139.88 234.189 139.28C233.109 138.66 232.249 137.75 231.609 136.55C230.989 135.35 230.679 133.85 230.679 132.05C230.679 130.25 230.999 128.75 231.639 127.55C232.299 126.35 233.169 125.45 234.249 124.85C235.349 124.25 236.559 123.95 237.879 123.95C239.439 123.95 240.819 124.29 242.019 124.97C243.219 125.65 244.169 126.6 244.869 127.82C245.569 129.02 245.919 130.43 245.919 132.05C245.919 133.67 245.569 135.09 244.869 136.31C244.169 137.53 243.219 138.48 242.019 139.16C240.819 139.84 239.439 140.18 237.879 140.18ZM229.449 140V117.74H232.329V128.33L232.029 132.02L232.209 135.71V140H229.449ZM237.639 137.66C238.659 137.66 239.569 137.43 240.369 136.97C241.189 136.51 241.829 135.86 242.289 135.02C242.769 134.16 243.009 133.17 243.009 132.05C243.009 130.91 242.769 129.93 242.289 129.11C241.829 128.27 241.189 127.62 240.369 127.16C239.569 126.7 238.659 126.47 237.639 126.47C236.639 126.47 235.729 126.7 234.909 127.16C234.109 127.62 233.469 128.27 232.989 129.11C232.529 129.93 232.299 130.91 232.299 132.05C232.299 133.17 232.529 134.16 232.989 135.02C233.469 135.86 234.109 136.51 234.909 136.97C235.729 137.43 236.639 137.66 237.639 137.66ZM249.898 140V124.1H252.778V140H249.898ZM251.338 121.04C250.778 121.04 250.308 120.86 249.928 120.5C249.568 120.14 249.388 119.7 249.388 119.18C249.388 118.64 249.568 118.19 249.928 117.83C250.308 117.47 250.778 117.29 251.338 117.29C251.898 117.29 252.358 117.47 252.718 117.83C253.098 118.17 253.288 118.6 253.288 119.12C253.288 119.66 253.108 120.12 252.748 120.5C252.388 120.86 251.918 121.04 251.338 121.04ZM265.357 140.18C263.657 140.18 262.157 139.83 260.857 139.13C259.577 138.43 258.577 137.47 257.857 136.25C257.157 135.03 256.807 133.63 256.807 132.05C256.807 130.47 257.147 129.07 257.827 127.85C258.527 126.63 259.477 125.68 260.677 125C261.897 124.3 263.267 123.95 264.787 123.95C266.327 123.95 267.687 124.29 268.867 124.97C270.047 125.65 270.967 126.61 271.627 127.85C272.307 129.07 272.647 130.5 272.647 132.14C272.647 132.26 272.637 132.4 272.617 132.56C272.617 132.72 272.607 132.87 272.587 133.01H259.057V130.94H271.087L269.917 131.66C269.937 130.64 269.727 129.73 269.287 128.93C268.847 128.13 268.237 127.51 267.457 127.07C266.697 126.61 265.807 126.38 264.787 126.38C263.787 126.38 262.897 126.61 262.117 127.07C261.337 127.51 260.727 128.14 260.287 128.96C259.847 129.76 259.627 130.68 259.627 131.72V132.2C259.627 133.26 259.867 134.21 260.347 135.05C260.847 135.87 261.537 136.51 262.417 136.97C263.297 137.43 264.307 137.66 265.447 137.66C266.387 137.66 267.237 137.5 267.997 137.18C268.777 136.86 269.457 136.38 270.037 135.74L271.627 137.6C270.907 138.44 270.007 139.08 268.927 139.52C267.867 139.96 266.677 140.18 265.357 140.18ZM282.106 140.18C280.506 140.18 279.266 139.75 278.386 138.89C277.506 138.03 277.066 136.8 277.066 135.2V120.62H279.946V135.08C279.946 135.94 280.156 136.6 280.576 137.06C281.016 137.52 281.636 137.75 282.436 137.75C283.336 137.75 284.086 137.5 284.686 137L285.586 139.07C285.146 139.45 284.616 139.73 283.996 139.91C283.396 140.09 282.766 140.18 282.106 140.18ZM274.366 126.47V124.1H284.506V126.47H274.366ZM295.621 140.18C293.921 140.18 292.421 139.83 291.121 139.13C289.841 138.43 288.841 137.47 288.121 136.25C287.421 135.03 287.071 133.63 287.071 132.05C287.071 130.47 287.411 129.07 288.091 127.85C288.791 126.63 289.741 125.68 290.941 125C292.161 124.3 293.531 123.95 295.051 123.95C296.591 123.95 297.951 124.29 299.131 124.97C300.311 125.65 301.231 126.61 301.891 127.85C302.571 129.07 302.911 130.5 302.911 132.14C302.911 132.26 302.901 132.4 302.881 132.56C302.881 132.72 302.871 132.87 302.851 133.01H289.321V130.94H301.351L300.181 131.66C300.201 130.64 299.991 129.73 299.551 128.93C299.111 128.13 298.501 127.51 297.721 127.07C296.961 126.61 296.071 126.38 295.051 126.38C294.051 126.38 293.161 126.61 292.381 127.07C291.601 127.51 290.991 128.14 290.551 128.96C290.111 129.76 289.891 130.68 289.891 131.72V132.2C289.891 133.26 290.131 134.21 290.611 135.05C291.111 135.87 291.801 136.51 292.681 136.97C293.561 137.43 294.571 137.66 295.711 137.66C296.651 137.66 297.501 137.5 298.261 137.18C299.041 136.86 299.721 136.38 300.301 135.74L301.891 137.6C301.171 138.44 300.271 139.08 299.191 139.52C298.131 139.96 296.941 140.18 295.621 140.18ZM311.47 140.18C310.15 140.18 308.89 140 307.69 139.64C306.51 139.28 305.58 138.84 304.9 138.32L306.1 136.04C306.78 136.5 307.62 136.89 308.62 137.21C309.62 137.53 310.64 137.69 311.68 137.69C313.02 137.69 313.98 137.5 314.56 137.12C315.16 136.74 315.46 136.21 315.46 135.53C315.46 135.03 315.28 134.64 314.92 134.36C314.56 134.08 314.08 133.87 313.48 133.73C312.9 133.59 312.25 133.47 311.53 133.37C310.81 133.25 310.09 133.11 309.37 132.95C308.65 132.77 307.99 132.53 307.39 132.23C306.79 131.91 306.31 131.48 305.95 130.94C305.59 130.38 305.41 129.64 305.41 128.72C305.41 127.76 305.68 126.92 306.22 126.2C306.76 125.48 307.52 124.93 308.5 124.55C309.5 124.15 310.68 123.95 312.04 123.95C313.08 123.95 314.13 124.08 315.19 124.34C316.27 124.58 317.15 124.93 317.83 125.39L316.6 127.67C315.88 127.19 315.13 126.86 314.35 126.68C313.57 126.5 312.79 126.41 312.01 126.41C310.75 126.41 309.81 126.62 309.19 127.04C308.57 127.44 308.26 127.96 308.26 128.6C308.26 129.14 308.44 129.56 308.8 129.86C309.18 130.14 309.66 130.36 310.24 130.52C310.84 130.68 311.5 130.82 312.22 130.94C312.94 131.04 313.66 131.18 314.38 131.36C315.1 131.52 315.75 131.75 316.33 132.05C316.93 132.35 317.41 132.77 317.77 133.31C318.15 133.85 318.34 134.57 318.34 135.47C318.34 136.43 318.06 137.26 317.5 137.96C316.94 138.66 316.15 139.21 315.13 139.61C314.11 139.99 312.89 140.18 311.47 140.18ZM327.399 140.18C325.799 140.18 324.559 139.75 323.679 138.89C322.799 138.03 322.359 136.8 322.359 135.2V120.62H325.239V135.08C325.239 135.94 325.449 136.6 325.869 137.06C326.309 137.52 326.929 137.75 327.729 137.75C328.629 137.75 329.379 137.5 329.979 137L330.879 139.07C330.439 139.45 329.909 139.73 329.289 139.91C328.689 140.09 328.059 140.18 327.399 140.18ZM319.659 126.47V124.1H329.799V126.47H319.659Z" fill="#005B52"/>
<path d="M72.5552 370.906C105.746 370.906 132.652 344 132.652 310.809C132.652 277.619 105.746 250.713 72.5552 250.713C39.3647 250.713 12.4585 277.619 12.4585 310.809C12.4585 344 39.3647 370.906 72.5552 370.906Z" stroke="#D3D3D3" stroke-miterlimit="10" stroke-dasharray="12.04 12.04"/>
<path d="M90.6604 290.777C80.7115 298.664 71.0763 307.583 65.6985 319.1C60.3208 330.617 59.9174 345.182 67.6256 355.266C77.933 368.755 100.206 372.295 104.598 388.697C107.735 400.439 99.2648 412.27 89.4504 419.396C79.6359 426.566 67.8945 431.271 59.6037 440.145C47.0556 453.5 44.8148 473.621 46.5178 491.861C48.3104 510.818 54.943 531.164 71.2556 540.978C91.5567 553.168 117.46 544.384 139.15 534.928C168.1 522.335 196.692 508.936 225.329 495.581C288.07 466.272 350.766 436.963 413.462 407.609C420.184 404.472 427.175 401.111 431.746 395.285C440.888 383.723 437.213 365.797 427.264 354.907C417.316 344.017 402.796 338.684 388.679 334.427C374.562 330.214 359.863 326.584 347.853 317.98C335.842 309.42 327.059 294.407 330.689 280.111C333.736 268.011 344.805 259.048 347.449 246.858C350.945 230.77 337.859 214.861 322.398 209.214C306.937 203.567 143.273 249.189 90.6604 290.777Z" fill="#F9F9F9"/>
<path d="M367.123 593.904C363.269 575.978 351.438 559.89 335.394 550.927C343.954 567.105 354.216 582.387 365.958 596.459L367.123 593.904Z" fill="#1A87D8"/>
<path d="M371.38 600.627C356.143 579.295 348.48 552.63 350.093 526.458C359.997 550.613 367.437 575.754 372.366 601.433L371.38 600.627Z" fill="#2A94F4"/>
<path d="M367.033 601.388C366.585 588.258 366.092 575.037 368.154 562.086C370.215 549.134 374.966 536.273 383.794 526.548C385.139 553.437 378.64 580.639 365.286 603.988L367.033 601.388Z" fill="#1A87D8"/>
<path d="M367.661 602.554C359.056 577.726 360.49 549.627 371.515 525.786C378.416 550.703 372.321 577.144 366.182 602.24L367.661 602.554Z" fill="#B0E1FF"/>
<path d="M368.781 593.367C371.156 571.587 385.676 551.554 405.619 542.547C397.507 564.282 383.704 583.821 365.913 598.7L368.781 593.367Z" fill="#2A94F4"/>
<path d="M389.351 589.557L386.886 631.818C386.886 633.834 385.228 635.537 383.167 635.537H353.858C351.841 635.537 350.138 633.879 350.138 631.818L349.6 622.272L347.673 589.557C347.673 587.541 349.331 585.838 351.393 585.838H385.631C386.976 585.838 388.141 586.555 388.813 587.63C389.172 588.168 389.351 588.84 389.351 589.557Z" fill="#CCE9FF"/>
<path d="M389.351 589.557L386.886 631.818C386.886 633.834 385.228 635.537 383.167 635.537H353.858C351.841 635.537 350.138 633.879 350.138 631.818L349.6 622.272C363.269 618.373 377.386 601.433 388.813 587.63C389.172 588.168 389.351 588.84 389.351 589.557Z" fill="#CCE9FF"/>
<path d="M463.072 639.526H405.529V278.498L463.072 232.025V639.526Z" fill="#CCE9FF"/>
<path d="M463.071 628.501H19.9426V658.931H463.071V628.501Z" fill="#F2F2F2"/>
<path d="M102.178 348.767C111.544 357.596 155.373 395.509 202.518 383.454C207.224 391.565 207.224 391.565 207.224 391.565C207.224 391.565 144.752 411.687 91.7359 356.655C97.6515 352.487 102.178 348.767 102.178 348.767Z" fill="#F4BD98"/>
<path d="M115.757 354.011C115.757 354.011 105.001 330.035 97.3826 330.528C89.764 331.021 83.3555 347.916 95.5003 367.5C106.525 362.794 115.757 354.011 115.757 354.011Z" fill="#4FB2FC"/>
<path d="M207.224 391.61C208.658 391.745 216.321 392.014 216.321 392.014C216.321 392.014 231.334 390.176 230.348 384.619C225.911 385.784 209.599 382.513 202.518 383.499C200.591 388.115 200.591 388.115 200.591 388.115L207.224 391.61Z" fill="#F4BD98"/>
<path d="M86.8959 634.103C90.4363 636.255 99.22 638.137 106.301 638.854C111.23 639.347 117.146 649.744 112.754 649.744C108.542 649.699 80.5771 650.102 72.7345 648.668C70.2697 647.548 71.6141 641.095 72.1519 633.207C78.8293 631.011 86.8959 634.103 86.8959 634.103Z" fill="#228DDD"/>
<path d="M107.869 441.31L92.0048 635.358H70.9866C70.9866 635.358 53.7778 463 62.3822 441.31C70.9867 419.62 107.869 441.31 107.869 441.31Z" fill="#0A3E5B"/>
<path d="M129.425 341.194C129.425 341.194 112.978 388.742 107.914 441.31C76.23 441.31 54.6741 441.31 54.6741 441.31C54.6741 441.31 68.4322 334.471 103.119 327.032C114.86 335.861 129.425 341.194 129.425 341.194Z" fill="#228DDD"/>
<path d="M134.534 318.742L123.689 331.379L112.799 325.509L122.21 309.465L134.534 318.742Z" fill="#FCCFAC"/>
<path d="M130.59 264.471C121.807 264.874 99.8026 267.877 106.973 305.521C113.157 308.345 120.866 315.56 120.866 315.56L131.621 268.056L130.59 264.471Z" fill="#0A3E5B"/>
<path d="M156.269 298.53C156.269 312.647 155.731 324.074 143.721 324.074C131.711 324.074 112.799 312.647 112.799 298.53C112.799 284.413 122.524 272.986 134.534 272.986C146.544 272.986 156.269 284.413 156.269 298.53Z" fill="#FCD7B9"/>
<path d="M157.524 281.007C157.3 281.993 157.076 282.934 156.852 283.831C156.583 284.996 155.776 285.758 154.566 286.251L146.679 286.699C141.122 286.116 134.624 284.324 130.635 282.979C130.635 282.979 130.277 282.845 129.694 282.576C129.246 282.352 128.619 282.083 127.946 281.724C126.109 280.783 123.689 279.349 121.627 277.601C121.583 277.557 121.538 277.512 121.493 277.467C119.924 276.123 118.58 274.554 117.908 272.896C117.236 271.193 117.325 269.4 118.58 267.518C119.88 265.636 122.793 264.784 126.557 264.56C133.1 264.157 142.153 265.726 149.368 267.025L157.524 281.007Z" fill="#0A3E5B"/>
<path d="M131.621 280.156C130.277 283.293 126.064 293.376 119.79 294.273C119.028 297.32 120.821 309.51 121.224 314.484C120.866 315.515 120.866 315.515 120.866 315.515L107.869 300.726L117.504 272.941L131.621 280.156Z" fill="#0A3E5B"/>
<path d="M119.356 302.79C121.332 302.328 122.423 299.765 121.792 297.066C121.16 294.367 119.047 292.554 117.071 293.016C115.094 293.478 114.004 296.041 114.635 298.74C115.266 301.439 117.38 303.252 119.356 302.79Z" fill="#FCD7B9"/>
<path d="M129.425 332.679L107.869 320.4L100.296 330.886L129.425 351.277V332.679Z" fill="#4FB2FC"/>
<path d="M159.944 286.923L156.09 287.147L147.844 287.595L105.36 290.015C105.36 289.836 105.36 289.702 105.36 289.522C104.732 273.927 116.115 260.706 131.039 259.855C138.523 259.452 145.469 262.185 150.712 267.025C153.715 269.804 156.09 273.21 157.748 277.109C158.376 278.587 158.869 280.111 159.227 281.68C159.272 281.814 159.272 281.949 159.317 282.083C159.63 283.652 159.854 285.265 159.944 286.923Z" fill="#FFA42C"/>
<path d="M274.356 305.432H182.934V396.854H274.356V305.432Z" fill="#FFA42C"/>
<path d="M102.088 351.904C111.096 361.091 153.311 400.842 200.905 390.804C205.252 399.094 205.252 399.094 205.252 399.094C205.252 399.094 142.018 416.572 91.3326 359.344C97.3826 355.4 102.088 351.904 102.088 351.904Z" fill="#FCCFAC"/>
<path d="M115.443 357.686C115.443 357.686 105.718 333.261 98.0996 333.486C90.4811 333.71 83.3556 350.291 94.6489 370.368C105.808 366.066 115.443 357.686 115.443 357.686Z" fill="#4FB2FC"/>
<path d="M205.252 399.094C206.686 399.318 215.963 401.604 215.963 401.604C215.963 401.604 224.926 394.747 224.119 389.101C219.637 390.087 207.986 390.087 200.86 390.804C198.709 395.33 198.709 395.33 198.709 395.33L205.252 399.094Z" fill="#FCCFAC"/>
<path d="M201.532 390.714C202.742 389.818 205.79 386.86 207.179 385.56C207.403 385.336 207.761 385.516 207.717 385.829C207.582 386.95 207.269 388.742 207.089 389.011C206.776 389.414 203.952 392.731 203.952 392.731L201.532 390.714Z" fill="#FCCFAC"/>
<path d="M237.832 305.432H219.503V338.191H237.832V305.432Z" fill="#FFBE78"/>
<path d="M174.554 283.561L153.883 284.728L154.024 287.234L174.695 286.066L174.554 283.561Z" fill="#FFA42C"/>
<path d="M391.457 356.879C383.122 366.693 343.819 409.267 295.643 402.59C291.879 411.194 291.879 411.194 291.879 411.194C291.879 411.194 356.188 424.191 402.751 363.556C396.387 360.061 391.457 356.879 391.457 356.879Z" fill="#F4BD98"/>
<path d="M378.551 363.556C378.551 363.556 386.528 338.505 394.191 338.191C401.854 337.877 410.1 353.921 400.196 374.76C388.724 371.265 378.551 363.556 378.551 363.556Z" fill="#4FB2FC"/>
<path d="M287.308 410.388C285.739 409.94 278.39 408.775 278.39 408.775C278.39 408.775 273.953 399.229 277.314 393.717C281.527 396.764 287.846 400.529 296.629 402.725C297.033 405.503 292.506 411.06 292.506 411.06L287.308 410.388Z" fill="#F4BD98"/>
<path d="M294.03 402.904C292.999 401.066 290.669 395.554 289.638 393.089C289.459 392.686 288.876 392.731 288.742 393.134C288.294 394.703 287.666 397.123 287.801 397.571C287.98 398.243 289.773 404.114 289.773 404.114L294.03 402.904Z" fill="#F4BD98"/>
<path d="M401.272 634.103C397.732 636.255 388.948 638.137 381.867 638.854C376.937 639.347 371.022 649.744 375.414 649.744C379.626 649.699 407.591 650.102 415.433 648.668C417.898 647.548 416.554 641.095 416.016 633.207C409.339 631.011 401.272 634.103 401.272 634.103Z" fill="#F28D16"/>
<path d="M380.254 441.31L396.118 635.358H417.136C417.136 635.358 434.345 463 425.741 441.31C417.136 419.62 380.254 441.31 380.254 441.31Z" fill="#0A3E5B"/>
<path d="M369.14 348.185C372.008 367.455 377.52 411.418 375.548 451.169C406.874 455.785 428.161 451.169 428.161 451.169C428.161 451.169 440.619 344.42 386.393 325.329C382.539 327.391 379.357 329.407 376.713 331.155C371.111 334.875 368.154 341.507 369.14 348.185Z" fill="#FFA42C"/>
<path d="M366.989 318.204L376.31 338.191L387.514 328.063L380.567 310.809L366.989 318.204Z" fill="#FCCFAC"/>
<path d="M381.822 266.263C388.948 265.591 399.345 270.028 400.51 284.862C401.406 296.872 395.267 308.3 385.004 314.484C382.629 315.918 381.016 316.994 381.016 316.994L377.296 268.459L381.822 266.263Z" fill="#0A3E5B"/>
<path d="M348.435 295.035C346.374 308.972 345.253 320.4 357.129 322.147C369.005 323.895 389.396 315.336 391.457 301.398C393.519 287.461 385.587 274.689 373.711 272.941C361.79 271.193 350.497 281.052 348.435 295.035Z" fill="#FCD7B9"/>
<path d="M375.414 284.055C367.974 285.354 350.676 288.133 347.136 283.965C346.06 282.71 341.892 266.129 341.892 266.129C365.151 272.761 385.676 260.661 390.203 269.938C394.729 279.215 375.414 284.055 375.414 284.055Z" fill="#0A3E5B"/>
<path d="M375.503 280.47C376.355 283.786 379.044 294.362 385.139 296.2C385.452 299.292 381.867 311.078 380.791 316.008L380.971 317.083L386.707 312.243C392.443 307.359 395.132 299.785 393.743 292.39L390.561 275.495L375.503 280.47Z" fill="#0A3E5B"/>
<path d="M389.604 301.289C390.623 298.711 389.919 296.017 388.032 295.271C386.144 294.524 383.788 296.01 382.769 298.588C381.75 301.166 382.454 303.86 384.342 304.606C386.229 305.352 388.585 303.867 389.604 301.289Z" fill="#FCD7B9"/>
<path d="M391.906 359.926C384.018 370.099 346.508 414.287 298.063 409.626C294.657 418.365 294.657 418.365 294.657 418.365C294.657 418.365 359.46 428.672 403.423 366.156C396.97 362.929 391.906 359.926 391.906 359.926Z" fill="#FCCFAC"/>
<path d="M379.313 367.186C379.313 367.186 386.259 341.821 393.877 341.194C401.496 340.522 410.414 356.252 401.406 377.449C389.799 374.446 379.313 367.186 379.313 367.186Z" fill="#FFBF73"/>
<path d="M291.565 418.365C289.952 418.051 282.513 417.468 282.513 417.468C282.513 417.468 277.314 408.281 280.227 402.545C284.664 405.234 290.848 408.281 299.811 409.76C300.439 412.494 296.764 418.589 296.764 418.589L291.565 418.365Z" fill="#FCCFAC"/>
<path d="M297.615 410.388C296.45 408.64 293.672 403.352 292.417 400.977C292.193 400.573 291.61 400.663 291.565 401.111C291.251 402.68 290.848 405.189 290.983 405.637C291.252 406.31 293.492 412.001 293.492 412.001L297.615 410.388Z" fill="#FCCFAC"/>
</svg>
