<svg width="591" height="583" viewBox="0 0 591 583" fill="none" xmlns="http://www.w3.org/2000/svg">
<g clip-path="url(#clip0_279_7)">
<path d="M57.5093 455.46C80.3525 486.033 107.307 497.409 159.743 518.714C267.022 562.296 389.099 571.978 478.831 532.867C544.445 504.286 574.628 461.666 588.263 369.63C599.511 293.63 576.049 189.406 517.862 166.187C455.703 141.385 403.574 228.849 317.07 202.425C270.74 188.278 270.946 158.692 223.407 148.691C168.994 137.265 107.729 163.198 69.7511 205.276C5.96465 275.959 9.14538 390.748 57.5093 455.46Z" fill="#E1ECFE"/>
<path d="M176.068 247.128H81.396V443.576H176.068V247.128Z" fill="#669D97"/>
<path d="M273.864 293.185H201.376V443.576H273.864V293.185Z" fill="#669D97"/>
<path d="M363.85 265.614H260.429V443.576H363.85V265.614Z" fill="#669D97"/>
<path d="M534.447 315.43H424.777V443.576H534.447V315.43Z" fill="#669D97"/>
<path d="M572.722 437.466H39.6841V464.724H572.722V437.466Z" fill="#005B52"/>
<path d="M282.447 405.624C282.447 404.33 282.21 404.531 280.92 404.531H255.224C253.933 404.531 252.89 404.953 252.89 406.247L255.224 420.149C255.224 421.44 256.271 422.342 257.561 422.342H280.92C282.21 422.342 282.447 420.976 282.447 419.682V405.624Z" fill="#0B4870"/>
<path d="M460.765 370.492C460.765 370.492 502.699 371.683 516.628 372.833C533.188 374.199 564.745 381.981 564.745 394.987C564.745 413.82 550.685 427.289 539.587 427.289C471.366 427.289 281.104 426.704 281.104 426.704C281.104 426.704 273.165 428.399 266.347 417.799C259.529 407.2 243.851 385.324 255.608 377.288C255.608 377.288 298.726 347.373 343.559 347.373C343.559 347.373 370.28 346.433 382.09 346.32C400.612 346.119 414.313 346.348 460.765 370.492Z" fill="#FFBE55"/>
<path d="M558.968 391.343C558.458 392.885 550.744 391.713 541.733 388.724C532.722 385.735 525.829 382.069 526.339 380.528C526.848 378.986 534.562 380.158 543.57 383.144C552.578 386.13 559.474 389.802 558.968 391.343Z" fill="#FCF47E"/>
<path d="M260.514 383.288C260.518 381.939 260.21 380.607 259.614 379.398C259.017 378.189 258.149 377.135 257.077 376.32C256.139 376.946 255.621 377.288 255.621 377.288C250.934 380.49 250.621 385.898 252.343 391.91C256.864 391.823 260.514 388.01 260.514 383.288Z" fill="#0B4870"/>
<path d="M349.765 413.946C349.765 419.717 348.059 425.358 344.862 430.157C341.665 434.956 337.121 438.696 331.805 440.905C326.488 443.114 320.637 443.693 314.992 442.567C309.348 441.442 304.163 438.664 300.093 434.583C296.023 430.503 293.251 425.304 292.128 419.644C291.004 413.984 291.58 408.117 293.782 402.785C295.983 397.453 299.713 392.896 304.497 389.689C309.282 386.482 314.908 384.77 320.663 384.77C324.484 384.769 328.268 385.524 331.799 386.99C335.329 388.456 338.537 390.605 341.24 393.314C343.942 396.023 346.086 399.239 347.548 402.779C349.011 406.319 349.764 410.114 349.765 413.946Z" fill="#0B4870"/>
<path d="M340.225 413.945C340.226 417.825 339.08 421.617 336.931 424.843C334.782 428.068 331.728 430.583 328.154 432.068C324.58 433.553 320.648 433.942 316.853 433.186C313.059 432.43 309.574 430.562 306.838 427.82C304.102 425.077 302.239 421.583 301.483 417.778C300.728 413.974 301.115 410.03 302.595 406.446C304.074 402.862 306.581 399.798 309.797 397.642C313.013 395.487 316.795 394.336 320.663 394.335C325.85 394.335 330.825 396.401 334.494 400.079C338.162 403.756 340.224 408.744 340.225 413.945Z" fill="#F2F2F2"/>
<path d="M325.409 413.949C325.409 414.889 325.131 415.809 324.61 416.591C324.089 417.373 323.348 417.983 322.481 418.343C321.615 418.703 320.661 418.797 319.741 418.613C318.821 418.43 317.976 417.977 317.312 417.312C316.649 416.647 316.197 415.799 316.014 414.877C315.831 413.954 315.925 412.998 316.284 412.129C316.643 411.26 317.251 410.517 318.031 409.994C318.811 409.472 319.728 409.193 320.666 409.193C321.924 409.193 323.13 409.694 324.02 410.586C324.909 411.478 325.409 412.687 325.409 413.949Z" fill="#0B4870"/>
<path d="M531.947 413.946C531.948 419.717 530.242 425.358 527.045 430.157C523.848 434.956 519.304 438.696 513.987 440.905C508.67 443.114 502.82 443.693 497.175 442.567C491.53 441.442 486.345 438.664 482.275 434.583C478.206 430.503 475.434 425.304 474.31 419.644C473.187 413.984 473.762 408.117 475.964 402.785C478.166 397.453 481.895 392.896 486.68 389.689C491.465 386.482 497.091 384.77 502.846 384.77C506.667 384.769 510.451 385.524 513.981 386.99C517.512 388.456 520.72 390.605 523.422 393.314C526.125 396.023 528.268 399.239 529.731 402.779C531.194 406.319 531.947 410.114 531.947 413.946Z" fill="#0B4870"/>
<path d="M522.408 413.946C522.408 417.824 521.26 421.616 519.111 424.841C516.961 428.066 513.906 430.579 510.332 432.063C506.759 433.548 502.826 433.936 499.032 433.179C495.238 432.422 491.754 430.554 489.018 427.811C486.283 425.068 484.42 421.574 483.666 417.77C482.911 413.965 483.298 410.022 484.778 406.438C486.258 402.854 488.764 399.791 491.98 397.636C495.196 395.48 498.978 394.33 502.846 394.329C508.034 394.329 513.01 396.396 516.678 400.075C520.347 403.753 522.408 408.743 522.408 413.946Z" fill="#F2F2F2"/>
<path d="M507.595 413.949C507.596 414.89 507.318 415.811 506.797 416.594C506.275 417.377 505.534 417.987 504.667 418.348C503.8 418.709 502.846 418.803 501.925 418.62C501.004 418.437 500.158 417.984 499.494 417.318C498.83 416.653 498.378 415.805 498.194 414.881C498.011 413.958 498.105 413.001 498.464 412.131C498.823 411.261 499.431 410.518 500.212 409.995C500.992 409.472 501.91 409.193 502.849 409.193C504.107 409.193 505.314 409.694 506.204 410.585C507.094 411.477 507.594 412.687 507.595 413.949Z" fill="#0B4870"/>
<path d="M478.834 420.24H343.034V427.572H478.834V420.24Z" fill="#0B4870"/>
<path d="M310.315 359.902C309.065 360.548 305.94 365.294 314.498 368.612C323.056 371.93 332.695 376.248 355.47 376.248H430.404C430.404 376.248 447.505 375.822 460.768 371.028C444.115 362.371 431.679 356.531 421.712 352.94C327.265 348.848 315.058 357.443 310.315 359.902Z" fill="#2A94F4"/>
<path d="M343.034 350.058H338.857V378.341H343.034V350.058Z" fill="#0B4870"/>
<path d="M394.677 347.337L392.543 351.503L446.526 379.3L448.66 375.133L394.677 347.337Z" fill="#0B4870"/>
<path d="M369.68 387.768C369.68 389.062 368.636 389.864 367.343 389.864H355.667C354.376 389.864 353.33 389.062 353.33 387.768C353.33 386.477 354.376 385.675 355.667 385.675H367.343C368.636 385.675 369.68 386.477 369.68 387.768Z" fill="#0E538C"/>
<path d="M411.811 231.776H327.449V316.37H357.445L369.63 328.59L381.816 316.37H411.811V231.776Z" fill="#005B52"/>
<path d="M406.343 236.789H333.542V309.791H406.343V236.789Z" fill="white"/>
<path d="M227.953 390.209C227.521 390.21 227.092 390.286 226.685 390.431V402.024C227.092 402.171 227.521 402.247 227.953 402.25C230.912 402.25 234.662 399.552 234.662 396.228C234.662 392.903 230.912 390.209 227.953 390.209Z" fill="#FFE3CA"/>
<path d="M228.403 375.286C227.798 375.28 227.203 375.443 226.685 375.756V388.602C227.204 388.912 227.799 389.074 228.403 389.068C231.362 389.068 235.108 385.982 235.108 382.176C235.108 378.369 231.362 375.286 228.403 375.286Z" fill="#FFE3CA"/>
<path d="M232.743 335.367C230.691 335.024 228.584 335.294 226.685 336.144V349.757C231.906 349.904 235.333 344.65 236.683 340.076C237.777 336.366 232.743 335.367 232.743 335.367Z" fill="#FFE3CA"/>
<path d="M234.212 360.836C231.668 358.138 227.678 360.106 226.685 360.66V375.013L228.872 374.042C236.327 370.718 239.611 366.563 234.212 360.836Z" fill="#FFE3CA"/>
<path d="M174.771 385.989C174.856 386.252 174.962 386.559 175.049 386.819L175.068 386.866C174.937 386.496 174.843 386.205 174.771 385.989Z" fill="#F7BE89"/>
<path d="M174.771 385.989C174.584 385.44 174.478 385.124 174.771 385.989V385.989Z" fill="#F7BE89"/>
<path d="M175.212 387.301C175.196 387.245 175.153 387.117 175.071 386.882C175.134 387.073 175.19 387.232 175.212 387.301Z" fill="#F7BE89"/>
<path d="M175.072 386.882C175.072 386.882 175.067 386.877 175.072 386.882V386.882Z" fill="#F7BE89"/>
<path d="M175.068 386.866L175.049 386.819L175.068 386.87V386.866Z" fill="#F7BE89"/>
<path d="M148.013 340.997C148.726 339.938 150.778 333.944 150.778 333.944C150.778 333.944 148.635 331.861 147.129 331.124C145.486 332.822 144.517 337.425 143.939 341.059L145.582 341.464C145.582 341.464 147.298 342.053 148.013 340.997Z" fill="#FCD2B1"/>
<path d="M179.149 427.38C175.34 428.117 171.525 425.1 170.675 420.676L162.214 376.752C158.893 379.393 155.928 382.104 155.928 382.104L151.722 360.241C151.722 360.241 155.362 351.74 156.124 345.086L154.584 337.084C153.465 334.411 151.735 331.901 149.313 330.683C148.473 330.26 147.751 330.479 147.126 331.127C148.632 331.861 150.775 333.947 150.775 333.947C150.775 333.947 148.723 339.941 148.01 341C147.298 342.059 145.579 341.47 145.579 341.47L143.939 341.066C143.558 343.441 143.683 342.983 143.558 343.441C141.808 350.08 135.715 350.44 136.562 357.145C137.621 365.567 131.485 381.27 135 388.041C138.252 394.342 138.19 401.883 139.44 408.782C139.777 410.662 138.868 413.632 139.162 414.967C136.575 419.335 120.468 434.364 120.468 434.364L148.357 464.173C148.357 464.173 166.741 443.529 176.665 439.512C191.747 433.405 194.712 427.941 197.983 423.743L179.149 427.38Z" fill="#FFE3CA"/>
<path d="M218.53 302.782H167.304C162.859 302.782 159.255 306.395 159.255 310.853V426.143C159.255 430.6 162.859 434.214 167.304 434.214H218.53C222.975 434.214 226.578 430.6 226.578 426.143V310.853C226.578 306.395 222.975 302.782 218.53 302.782Z" fill="#005B52"/>
<path d="M216.19 306.097H169.644C165.503 306.097 162.145 309.463 162.145 313.616V423.382C162.145 427.535 165.503 430.902 169.644 430.902H216.19C220.331 430.902 223.688 427.535 223.688 423.382V313.616C223.688 309.463 220.331 306.097 216.19 306.097Z" fill="white"/>
<path d="M179.633 303.747H206.191V305.445C206.191 306.129 206.057 306.805 205.796 307.437C205.535 308.068 205.153 308.642 204.671 309.125C204.189 309.608 203.617 309.992 202.987 310.253C202.358 310.515 201.683 310.649 201.001 310.649H184.823C183.446 310.649 182.126 310.101 181.153 309.125C180.18 308.149 179.633 306.825 179.633 305.445V303.747Z" fill="#005B52"/>
<path d="M228.06 473.134L218.998 452.803C216.186 446.471 213.531 440.129 211.012 433.728L210.984 433.678C210.984 433.678 215.315 460.698 215.902 463.731C217.361 471.251 225.144 476.981 230.156 482.035C231.112 483.003 245.235 496.325 245.235 496.325C244.297 495.332 243.316 494.188 242.198 492.803C237.202 486.615 231.35 480.509 228.06 473.134Z" fill="#FCD2B1"/>
<path d="M294.477 479.124C288.028 472.021 293.642 456.252 289.603 447.714C286.666 441.517 281.613 424.68 274.08 423.007C270.568 422.226 268.325 424.294 265.163 421.098C261.62 417.511 259.245 421.412 255.677 420.406C252.259 419.435 250.924 414.19 246.656 417.527C244.085 418.742 242.423 421.004 239.27 419.062C236.539 417.379 234.418 414.676 230.99 417.182C228.856 418.056 227.706 420.246 225.004 419.04C222.564 417.953 221.207 413.66 220.086 411.458L206.404 384.651C205.107 382.113 203.635 377.717 201.189 376.408C192.968 372.002 194.003 386.311 195.362 390.193L204.395 415.904C206.505 421.924 208.714 427.865 211.022 433.728C213.54 440.129 216.183 446.471 219.008 452.803L228.069 473.134C231.359 480.509 237.214 486.606 242.198 492.8C243.316 494.185 244.297 495.329 245.235 496.322C248.134 499.392 250.584 501.022 255.155 503.841C260.62 507.216 270.328 519.61 270.328 519.61L306.306 498.17C306.306 498.17 297.045 481.947 294.477 479.124Z" fill="#FFE3CA"/>
<path d="M195.877 378.2C195.877 378.2 197.28 383.413 199.139 383.695C200.998 383.977 205.201 382.066 205.188 382.035C204.067 379.951 203.142 377.21 201.189 376.326C200.841 376.169 200.483 376.034 200.117 375.922C198.514 376.235 196.612 376.877 195.877 378.2Z" fill="#FCD2B1"/>
<path d="M118.543 427.553L155.428 464.987L76.0844 561.381L0 539.894L118.543 427.553Z" fill="#FFBE55"/>
<path d="M259.636 519.573L310.962 489.05L373.536 575.167L298.548 583L259.636 519.573Z" fill="#FFBE55"/>
</g>
<path d="M60.1538 29L53.1338 8H56.2238L62.6738 27.38H61.1138L67.8038 8H70.5638L77.1038 27.38H75.6038L82.1438 8H84.9938L77.9738 29H74.8238L68.7038 11.03H69.5138L63.3638 29H60.1538ZM94.1225 29.18C92.4225 29.18 90.9225 28.83 89.6225 28.13C88.3425 27.43 87.3425 26.47 86.6225 25.25C85.9225 24.03 85.5725 22.63 85.5725 21.05C85.5725 19.47 85.9125 18.07 86.5925 16.85C87.2925 15.63 88.2425 14.68 89.4425 14C90.6625 13.3 92.0325 12.95 93.5525 12.95C95.0925 12.95 96.4525 13.29 97.6325 13.97C98.8125 14.65 99.7325 15.61 100.393 16.85C101.073 18.07 101.413 19.5 101.413 21.14C101.413 21.26 101.403 21.4 101.383 21.56C101.383 21.72 101.373 21.87 101.353 22.01H87.8225V19.94H99.8525L98.6825 20.66C98.7025 19.64 98.4925 18.73 98.0525 17.93C97.6125 17.13 97.0025 16.51 96.2225 16.07C95.4625 15.61 94.5725 15.38 93.5525 15.38C92.5525 15.38 91.6625 15.61 90.8825 16.07C90.1025 16.51 89.4925 17.14 89.0525 17.96C88.6125 18.76 88.3925 19.68 88.3925 20.72V21.2C88.3925 22.26 88.6325 23.21 89.1125 24.05C89.6125 24.87 90.3025 25.51 91.1825 25.97C92.0625 26.43 93.0725 26.66 94.2125 26.66C95.1525 26.66 96.0025 26.5 96.7625 26.18C97.5425 25.86 98.2225 25.38 98.8025 24.74L100.393 26.6C99.6725 27.44 98.7725 28.08 97.6925 28.52C96.6325 28.96 95.4425 29.18 94.1225 29.18ZM105.412 29V13.1H108.172V17.42L107.902 16.34C108.342 15.24 109.082 14.4 110.122 13.82C111.162 13.24 112.442 12.95 113.962 12.95V15.74C113.842 15.72 113.722 15.71 113.602 15.71C113.502 15.71 113.402 15.71 113.302 15.71C111.762 15.71 110.542 16.17 109.642 17.09C108.742 18.01 108.292 19.34 108.292 21.08V29H105.412ZM123.935 29.18C122.395 29.18 121.015 28.84 119.795 28.16C118.595 27.48 117.645 26.53 116.945 25.31C116.245 24.09 115.895 22.67 115.895 21.05C115.895 19.43 116.245 18.02 116.945 16.82C117.645 15.6 118.595 14.65 119.795 13.97C121.015 13.29 122.395 12.95 123.935 12.95C125.275 12.95 126.485 13.25 127.565 13.85C128.645 14.45 129.505 15.35 130.145 16.55C130.805 17.75 131.135 19.25 131.135 21.05C131.135 22.85 130.815 24.35 130.175 25.55C129.555 26.75 128.705 27.66 127.625 28.28C126.545 28.88 125.315 29.18 123.935 29.18ZM124.175 26.66C125.175 26.66 126.075 26.43 126.875 25.97C127.695 25.51 128.335 24.86 128.795 24.02C129.275 23.16 129.515 22.17 129.515 21.05C129.515 19.91 129.275 18.93 128.795 18.11C128.335 17.27 127.695 16.62 126.875 16.16C126.075 15.7 125.175 15.47 124.175 15.47C123.155 15.47 122.245 15.7 121.445 16.16C120.645 16.62 120.005 17.27 119.525 18.11C119.045 18.93 118.805 19.91 118.805 21.05C118.805 22.17 119.045 23.16 119.525 24.02C120.005 24.86 120.645 25.51 121.445 25.97C122.245 26.43 123.155 26.66 124.175 26.66ZM129.605 29V24.71L129.785 21.02L129.485 17.33V6.74H132.365V29H129.605ZM144.894 29.18C143.194 29.18 141.694 28.83 140.394 28.13C139.114 27.43 138.114 26.47 137.394 25.25C136.694 24.03 136.344 22.63 136.344 21.05C136.344 19.47 136.684 18.07 137.364 16.85C138.064 15.63 139.014 14.68 140.214 14C141.434 13.3 142.804 12.95 144.324 12.95C145.864 12.95 147.224 13.29 148.404 13.97C149.584 14.65 150.504 15.61 151.164 16.85C151.844 18.07 152.184 19.5 152.184 21.14C152.184 21.26 152.174 21.4 152.154 21.56C152.154 21.72 152.144 21.87 152.124 22.01H138.594V19.94H150.624L149.454 20.66C149.474 19.64 149.264 18.73 148.824 17.93C148.384 17.13 147.774 16.51 146.994 16.07C146.234 15.61 145.344 15.38 144.324 15.38C143.324 15.38 142.434 15.61 141.654 16.07C140.874 16.51 140.264 17.14 139.824 17.96C139.384 18.76 139.164 19.68 139.164 20.72V21.2C139.164 22.26 139.404 23.21 139.884 24.05C140.384 24.87 141.074 25.51 141.954 25.97C142.834 26.43 143.844 26.66 144.984 26.66C145.924 26.66 146.774 26.5 147.534 26.18C148.314 25.86 148.994 25.38 149.574 24.74L151.164 26.6C150.444 27.44 149.544 28.08 148.464 28.52C147.404 28.96 146.214 29.18 144.894 29.18ZM174.05 29.24C172.45 29.24 170.97 28.98 169.61 28.46C168.27 27.92 167.1 27.17 166.1 26.21C165.12 25.23 164.35 24.09 163.79 22.79C163.23 21.49 162.95 20.06 162.95 18.5C162.95 16.94 163.23 15.51 163.79 14.21C164.35 12.91 165.13 11.78 166.13 10.82C167.13 9.84 168.3 9.09 169.64 8.57C171 8.03 172.48 7.76 174.08 7.76C175.7 7.76 177.19 8.04 178.55 8.6C179.93 9.14 181.1 9.95 182.06 11.03L180.11 12.92C179.31 12.08 178.41 11.46 177.41 11.06C176.41 10.64 175.34 10.43 174.2 10.43C173.02 10.43 171.92 10.63 170.9 11.03C169.9 11.43 169.03 11.99 168.29 12.71C167.55 13.43 166.97 14.29 166.55 15.29C166.15 16.27 165.95 17.34 165.95 18.5C165.95 19.66 166.15 20.74 166.55 21.74C166.97 22.72 167.55 23.57 168.29 24.29C169.03 25.01 169.9 25.57 170.9 25.97C171.92 26.37 173.02 26.57 174.2 26.57C175.34 26.57 176.41 26.37 177.41 25.97C178.41 25.55 179.31 24.91 180.11 24.05L182.06 25.94C181.1 27.02 179.93 27.84 178.55 28.4C177.19 28.96 175.69 29.24 174.05 29.24ZM195.584 29V25.64L195.434 25.01V19.28C195.434 18.06 195.074 17.12 194.354 16.46C193.654 15.78 192.594 15.44 191.174 15.44C190.234 15.44 189.314 15.6 188.414 15.92C187.514 16.22 186.754 16.63 186.134 17.15L184.934 14.99C185.754 14.33 186.734 13.83 187.874 13.49C189.034 13.13 190.244 12.95 191.504 12.95C193.684 12.95 195.364 13.48 196.544 14.54C197.724 15.6 198.314 17.22 198.314 19.4V29H195.584ZM190.364 29.18C189.184 29.18 188.144 28.98 187.244 28.58C186.364 28.18 185.684 27.63 185.204 26.93C184.724 26.21 184.484 25.4 184.484 24.5C184.484 23.64 184.684 22.86 185.084 22.16C185.504 21.46 186.174 20.9 187.094 20.48C188.034 20.06 189.294 19.85 190.874 19.85H195.914V21.92H190.994C189.554 21.92 188.584 22.16 188.084 22.64C187.584 23.12 187.334 23.7 187.334 24.38C187.334 25.16 187.644 25.79 188.264 26.27C188.884 26.73 189.744 26.96 190.844 26.96C191.924 26.96 192.864 26.72 193.664 26.24C194.484 25.76 195.074 25.06 195.434 24.14L196.004 26.12C195.624 27.06 194.954 27.81 193.994 28.37C193.034 28.91 191.824 29.18 190.364 29.18ZM203.644 29V13.1H206.404V17.42L206.134 16.34C206.574 15.24 207.314 14.4 208.354 13.82C209.394 13.24 210.674 12.95 212.194 12.95V15.74C212.074 15.72 211.954 15.71 211.834 15.71C211.734 15.71 211.634 15.71 211.534 15.71C209.994 15.71 208.774 16.17 207.874 17.09C206.974 18.01 206.524 19.34 206.524 21.08V29H203.644ZM222.557 35C221.097 35 219.677 34.79 218.297 34.37C216.937 33.97 215.827 33.39 214.967 32.63L216.347 30.41C217.087 31.05 217.997 31.55 219.077 31.91C220.157 32.29 221.287 32.48 222.467 32.48C224.347 32.48 225.727 32.04 226.607 31.16C227.487 30.28 227.927 28.94 227.927 27.14V23.78L228.227 20.63L228.077 17.45V13.1H230.807V26.84C230.807 29.64 230.107 31.7 228.707 33.02C227.307 34.34 225.257 35 222.557 35ZM222.197 28.34C220.657 28.34 219.277 28.02 218.057 27.38C216.857 26.72 215.897 25.81 215.177 24.65C214.477 23.49 214.127 22.15 214.127 20.63C214.127 19.09 214.477 17.75 215.177 16.61C215.897 15.45 216.857 14.55 218.057 13.91C219.277 13.27 220.657 12.95 222.197 12.95C223.557 12.95 224.797 13.23 225.917 13.79C227.037 14.33 227.927 15.17 228.587 16.31C229.267 17.45 229.607 18.89 229.607 20.63C229.607 22.35 229.267 23.78 228.587 24.92C227.927 26.06 227.037 26.92 225.917 27.5C224.797 28.06 223.557 28.34 222.197 28.34ZM222.527 25.82C223.587 25.82 224.527 25.6 225.347 25.16C226.167 24.72 226.807 24.11 227.267 23.33C227.747 22.55 227.987 21.65 227.987 20.63C227.987 19.61 227.747 18.71 227.267 17.93C226.807 17.15 226.167 16.55 225.347 16.13C224.527 15.69 223.587 15.47 222.527 15.47C221.467 15.47 220.517 15.69 219.677 16.13C218.857 16.55 218.207 17.15 217.727 17.93C217.267 18.71 217.037 19.61 217.037 20.63C217.037 21.65 217.267 22.55 217.727 23.33C218.207 24.11 218.857 24.72 219.677 25.16C220.517 25.6 221.467 25.82 222.527 25.82ZM243.12 29.18C241.52 29.18 240.1 28.83 238.86 28.13C237.62 27.43 236.64 26.47 235.92 25.25C235.2 24.01 234.84 22.61 234.84 21.05C234.84 19.47 235.2 18.07 235.92 16.85C236.64 15.63 237.62 14.68 238.86 14C240.1 13.3 241.52 12.95 243.12 12.95C244.7 12.95 246.11 13.3 247.35 14C248.61 14.68 249.59 15.63 250.29 16.85C251.01 18.05 251.37 19.45 251.37 21.05C251.37 22.63 251.01 24.03 250.29 25.25C249.59 26.47 248.61 27.43 247.35 28.13C246.11 28.83 244.7 29.18 243.12 29.18ZM243.12 26.66C244.14 26.66 245.05 26.43 245.85 25.97C246.67 25.51 247.31 24.86 247.77 24.02C248.23 23.16 248.46 22.17 248.46 21.05C248.46 19.91 248.23 18.93 247.77 18.11C247.31 17.27 246.67 16.62 245.85 16.16C245.05 15.7 244.14 15.47 243.12 15.47C242.1 15.47 241.19 15.7 240.39 16.16C239.59 16.62 238.95 17.27 238.47 18.11C237.99 18.93 237.75 19.91 237.75 21.05C237.75 22.17 237.99 23.16 238.47 24.02C238.95 24.86 239.59 25.51 240.39 25.97C241.19 26.43 242.1 26.66 243.12 26.66ZM263.843 12.95C265.143 12.95 266.283 13.2 267.263 13.7C268.263 14.2 269.043 14.96 269.603 15.98C270.163 17 270.443 18.29 270.443 19.85V29H267.563V20.18C267.563 18.64 267.183 17.48 266.423 16.7C265.683 15.92 264.633 15.53 263.273 15.53C262.253 15.53 261.363 15.73 260.603 16.13C259.843 16.53 259.253 17.12 258.833 17.9C258.433 18.68 258.233 19.65 258.233 20.81V29H255.353V13.1H258.113V17.39L257.663 16.25C258.183 15.21 258.983 14.4 260.063 13.82C261.143 13.24 262.403 12.95 263.843 12.95ZM285.643 29V25.64L285.493 25.01V19.28C285.493 18.06 285.133 17.12 284.413 16.46C283.713 15.78 282.653 15.44 281.233 15.44C280.293 15.44 279.373 15.6 278.473 15.92C277.573 16.22 276.813 16.63 276.193 17.15L274.993 14.99C275.813 14.33 276.793 13.83 277.933 13.49C279.093 13.13 280.303 12.95 281.563 12.95C283.743 12.95 285.423 13.48 286.603 14.54C287.783 15.6 288.373 17.22 288.373 19.4V29H285.643ZM280.423 29.18C279.243 29.18 278.203 28.98 277.303 28.58C276.423 28.18 275.743 27.63 275.263 26.93C274.783 26.21 274.543 25.4 274.543 24.5C274.543 23.64 274.743 22.86 275.143 22.16C275.563 21.46 276.233 20.9 277.153 20.48C278.093 20.06 279.353 19.85 280.933 19.85H285.973V21.92H281.053C279.613 21.92 278.643 22.16 278.143 22.64C277.643 23.12 277.393 23.7 277.393 24.38C277.393 25.16 277.703 25.79 278.323 26.27C278.943 26.73 279.803 26.96 280.903 26.96C281.983 26.96 282.923 26.72 283.723 26.24C284.543 25.76 285.133 25.06 285.493 24.14L286.063 26.12C285.683 27.06 285.013 27.81 284.053 28.37C283.093 28.91 281.883 29.18 280.423 29.18ZM300.393 29.18C299.033 29.18 297.833 28.93 296.793 28.43C295.773 27.93 294.973 27.17 294.393 26.15C293.833 25.11 293.553 23.81 293.553 22.25V13.1H296.433V21.92C296.433 23.48 296.803 24.65 297.543 25.43C298.303 26.21 299.363 26.6 300.723 26.6C301.723 26.6 302.593 26.4 303.333 26C304.073 25.58 304.643 24.98 305.043 24.2C305.443 23.4 305.643 22.44 305.643 21.32V13.1H308.523V29H305.793V24.71L306.243 25.85C305.723 26.91 304.943 27.73 303.903 28.31C302.863 28.89 301.693 29.18 300.393 29.18ZM319.465 29.18C317.865 29.18 316.625 28.75 315.745 27.89C314.865 27.03 314.425 25.8 314.425 24.2V9.62H317.305V24.08C317.305 24.94 317.515 25.6 317.935 26.06C318.375 26.52 318.995 26.75 319.795 26.75C320.695 26.75 321.445 26.5 322.045 26L322.945 28.07C322.505 28.45 321.975 28.73 321.355 28.91C320.755 29.09 320.125 29.18 319.465 29.18ZM311.725 15.47V13.1H321.865V15.47H311.725ZM326.847 29V11.69C326.847 10.13 327.297 8.89 328.197 7.97C329.117 7.03 330.417 6.56 332.097 6.56C332.717 6.56 333.307 6.64 333.867 6.8C334.447 6.94 334.937 7.17 335.337 7.49L334.467 9.68C334.167 9.44 333.827 9.26 333.447 9.14C333.067 9 332.667 8.93 332.247 8.93C331.407 8.93 330.767 9.17 330.327 9.65C329.887 10.11 329.667 10.8 329.667 11.72V13.85L329.727 15.17V29H326.847ZM324.147 15.47V13.1H334.287V15.47H324.147ZM346.58 29V25.64L346.43 25.01V19.28C346.43 18.06 346.07 17.12 345.35 16.46C344.65 15.78 343.59 15.44 342.17 15.44C341.23 15.44 340.31 15.6 339.41 15.92C338.51 16.22 337.75 16.63 337.13 17.15L335.93 14.99C336.75 14.33 337.73 13.83 338.87 13.49C340.03 13.13 341.24 12.95 342.5 12.95C344.68 12.95 346.36 13.48 347.54 14.54C348.72 15.6 349.31 17.22 349.31 19.4V29H346.58ZM341.36 29.18C340.18 29.18 339.14 28.98 338.24 28.58C337.36 28.18 336.68 27.63 336.2 26.93C335.72 26.21 335.48 25.4 335.48 24.5C335.48 23.64 335.68 22.86 336.08 22.16C336.5 21.46 337.17 20.9 338.09 20.48C339.03 20.06 340.29 19.85 341.87 19.85H346.91V21.92H341.99C340.55 21.92 339.58 22.16 339.08 22.64C338.58 23.12 338.33 23.7 338.33 24.38C338.33 25.16 338.64 25.79 339.26 26.27C339.88 26.73 340.74 26.96 341.84 26.96C342.92 26.96 343.86 26.72 344.66 26.24C345.48 25.76 346.07 25.06 346.43 24.14L347 26.12C346.62 27.06 345.95 27.81 344.99 28.37C344.03 28.91 342.82 29.18 341.36 29.18ZM363.13 12.95C364.43 12.95 365.57 13.2 366.55 13.7C367.55 14.2 368.33 14.96 368.89 15.98C369.45 17 369.73 18.29 369.73 19.85V29H366.85V20.18C366.85 18.64 366.47 17.48 365.71 16.7C364.97 15.92 363.92 15.53 362.56 15.53C361.54 15.53 360.65 15.73 359.89 16.13C359.13 16.53 358.54 17.12 358.12 17.9C357.72 18.68 357.52 19.65 357.52 20.81V29H354.64V6.74H357.52V17.39L356.95 16.25C357.47 15.21 358.27 14.4 359.35 13.82C360.43 13.24 361.69 12.95 363.13 12.95ZM375.06 29V13.1H377.82V17.42L377.55 16.34C377.99 15.24 378.73 14.4 379.77 13.82C380.81 13.24 382.09 12.95 383.61 12.95V15.74C383.49 15.72 383.37 15.71 383.25 15.71C383.15 15.71 383.05 15.71 382.95 15.71C381.41 15.71 380.19 16.17 379.29 17.09C378.39 18.01 377.94 19.34 377.94 21.08V29H375.06ZM394.093 29.18C392.393 29.18 390.893 28.83 389.593 28.13C388.313 27.43 387.313 26.47 386.593 25.25C385.893 24.03 385.543 22.63 385.543 21.05C385.543 19.47 385.883 18.07 386.563 16.85C387.263 15.63 388.213 14.68 389.413 14C390.633 13.3 392.003 12.95 393.523 12.95C395.063 12.95 396.423 13.29 397.603 13.97C398.783 14.65 399.703 15.61 400.363 16.85C401.043 18.07 401.383 19.5 401.383 21.14C401.383 21.26 401.373 21.4 401.353 21.56C401.353 21.72 401.343 21.87 401.323 22.01H387.793V19.94H399.823L398.653 20.66C398.673 19.64 398.463 18.73 398.023 17.93C397.583 17.13 396.973 16.51 396.193 16.07C395.433 15.61 394.543 15.38 393.523 15.38C392.523 15.38 391.633 15.61 390.853 16.07C390.073 16.51 389.463 17.14 389.023 17.96C388.583 18.76 388.363 19.68 388.363 20.72V21.2C388.363 22.26 388.603 23.21 389.083 24.05C389.583 24.87 390.273 25.51 391.153 25.97C392.033 26.43 393.043 26.66 394.183 26.66C395.123 26.66 395.973 26.5 396.733 26.18C397.513 25.86 398.193 25.38 398.773 24.74L400.363 26.6C399.643 27.44 398.743 28.08 397.663 28.52C396.603 28.96 395.413 29.18 394.093 29.18ZM405.382 29V13.1H408.142V17.42L407.872 16.34C408.312 15.24 409.052 14.4 410.092 13.82C411.132 13.24 412.412 12.95 413.932 12.95V15.74C413.812 15.72 413.692 15.71 413.572 15.71C413.472 15.71 413.372 15.71 413.272 15.71C411.732 15.71 410.512 16.17 409.612 17.09C408.712 18.01 408.262 19.34 408.262 21.08V29H405.382ZM432.434 29.18C431.074 29.18 429.874 28.93 428.834 28.43C427.814 27.93 427.014 27.17 426.434 26.15C425.874 25.11 425.594 23.81 425.594 22.25V13.1H428.474V21.92C428.474 23.48 428.844 24.65 429.584 25.43C430.344 26.21 431.404 26.6 432.764 26.6C433.764 26.6 434.634 26.4 435.374 26C436.114 25.58 436.684 24.98 437.084 24.2C437.484 23.4 437.684 22.44 437.684 21.32V13.1H440.564V29H437.834V24.71L438.284 25.85C437.764 26.91 436.984 27.73 435.944 28.31C434.904 28.89 433.734 29.18 432.434 29.18ZM454.536 12.95C455.836 12.95 456.976 13.2 457.956 13.7C458.956 14.2 459.736 14.96 460.296 15.98C460.856 17 461.136 18.29 461.136 19.85V29H458.256V20.18C458.256 18.64 457.876 17.48 457.116 16.7C456.376 15.92 455.326 15.53 453.966 15.53C452.946 15.53 452.056 15.73 451.296 16.13C450.536 16.53 449.946 17.12 449.526 17.9C449.126 18.68 448.926 19.65 448.926 20.81V29H446.046V13.1H448.806V17.39L448.356 16.25C448.876 15.21 449.676 14.4 450.756 13.82C451.836 13.24 453.096 12.95 454.536 12.95ZM473.036 29.18C471.496 29.18 470.116 28.84 468.896 28.16C467.696 27.48 466.746 26.53 466.046 25.31C465.346 24.09 464.996 22.67 464.996 21.05C464.996 19.43 465.346 18.02 466.046 16.82C466.746 15.6 467.696 14.65 468.896 13.97C470.116 13.29 471.496 12.95 473.036 12.95C474.376 12.95 475.586 13.25 476.666 13.85C477.746 14.45 478.606 15.35 479.246 16.55C479.906 17.75 480.236 19.25 480.236 21.05C480.236 22.85 479.916 24.35 479.276 25.55C478.656 26.75 477.806 27.66 476.726 28.28C475.646 28.88 474.416 29.18 473.036 29.18ZM473.276 26.66C474.276 26.66 475.176 26.43 475.976 25.97C476.796 25.51 477.436 24.86 477.896 24.02C478.376 23.16 478.616 22.17 478.616 21.05C478.616 19.91 478.376 18.93 477.896 18.11C477.436 17.27 476.796 16.62 475.976 16.16C475.176 15.7 474.276 15.47 473.276 15.47C472.256 15.47 471.346 15.7 470.546 16.16C469.746 16.62 469.106 17.27 468.626 18.11C468.146 18.93 467.906 19.91 467.906 21.05C467.906 22.17 468.146 23.16 468.626 24.02C469.106 24.86 469.746 25.51 470.546 25.97C471.346 26.43 472.256 26.66 473.276 26.66ZM478.706 29V24.71L478.886 21.02L478.586 17.33V6.74H481.466V29H478.706ZM499.532 29.18C498.212 29.18 496.952 29 495.752 28.64C494.572 28.28 493.642 27.84 492.962 27.32L494.162 25.04C494.842 25.5 495.682 25.89 496.682 26.21C497.682 26.53 498.702 26.69 499.742 26.69C501.082 26.69 502.042 26.5 502.622 26.12C503.222 25.74 503.522 25.21 503.522 24.53C503.522 24.03 503.342 23.64 502.982 23.36C502.622 23.08 502.142 22.87 501.542 22.73C500.962 22.59 500.312 22.47 499.592 22.37C498.872 22.25 498.152 22.11 497.432 21.95C496.712 21.77 496.052 21.53 495.452 21.23C494.852 20.91 494.372 20.48 494.012 19.94C493.652 19.38 493.472 18.64 493.472 17.72C493.472 16.76 493.742 15.92 494.282 15.2C494.822 14.48 495.582 13.93 496.562 13.55C497.562 13.15 498.742 12.95 500.102 12.95C501.142 12.95 502.192 13.08 503.252 13.34C504.332 13.58 505.212 13.93 505.892 14.39L504.662 16.67C503.942 16.19 503.192 15.86 502.412 15.68C501.632 15.5 500.852 15.41 500.072 15.41C498.812 15.41 497.872 15.62 497.252 16.04C496.632 16.44 496.322 16.96 496.322 17.6C496.322 18.14 496.502 18.56 496.862 18.86C497.242 19.14 497.722 19.36 498.302 19.52C498.902 19.68 499.562 19.82 500.282 19.94C501.002 20.04 501.722 20.18 502.442 20.36C503.162 20.52 503.812 20.75 504.392 21.05C504.992 21.35 505.472 21.77 505.832 22.31C506.212 22.85 506.402 23.57 506.402 24.47C506.402 25.43 506.122 26.26 505.562 26.96C505.002 27.66 504.212 28.21 503.192 28.61C502.172 28.99 500.952 29.18 499.532 29.18ZM518.431 29.18C517.111 29.18 515.901 28.88 514.801 28.28C513.721 27.66 512.851 26.75 512.191 25.55C511.551 24.35 511.231 22.85 511.231 21.05C511.231 19.25 511.541 17.75 512.161 16.55C512.801 15.35 513.661 14.45 514.741 13.85C515.841 13.25 517.071 12.95 518.431 12.95C519.991 12.95 521.371 13.29 522.571 13.97C523.771 14.65 524.721 15.6 525.421 16.82C526.121 18.02 526.471 19.43 526.471 21.05C526.471 22.67 526.121 24.09 525.421 25.31C524.721 26.53 523.771 27.48 522.571 28.16C521.371 28.84 519.991 29.18 518.431 29.18ZM510.001 34.82V13.1H512.761V17.39L512.581 21.08L512.881 24.77V34.82H510.001ZM518.191 26.66C519.211 26.66 520.121 26.43 520.921 25.97C521.741 25.51 522.381 24.86 522.841 24.02C523.321 23.16 523.561 22.17 523.561 21.05C523.561 19.91 523.321 18.93 522.841 18.11C522.381 17.27 521.741 16.62 520.921 16.16C520.121 15.7 519.211 15.47 518.191 15.47C517.191 15.47 516.281 15.7 515.461 16.16C514.661 16.62 514.021 17.27 513.541 18.11C513.081 18.93 512.851 19.91 512.851 21.05C512.851 22.17 513.081 23.16 513.541 24.02C514.021 24.86 514.661 25.51 515.461 25.97C516.281 26.43 517.191 26.66 518.191 26.66ZM540.174 29V25.64L540.024 25.01V19.28C540.024 18.06 539.664 17.12 538.944 16.46C538.244 15.78 537.184 15.44 535.764 15.44C534.824 15.44 533.904 15.6 533.004 15.92C532.104 16.22 531.344 16.63 530.724 17.15L529.524 14.99C530.344 14.33 531.324 13.83 532.464 13.49C533.624 13.13 534.834 12.95 536.094 12.95C538.274 12.95 539.954 13.48 541.134 14.54C542.314 15.6 542.904 17.22 542.904 19.4V29H540.174ZM534.954 29.18C533.774 29.18 532.734 28.98 531.834 28.58C530.954 28.18 530.274 27.63 529.794 26.93C529.314 26.21 529.074 25.4 529.074 24.5C529.074 23.64 529.274 22.86 529.674 22.16C530.094 21.46 530.764 20.9 531.684 20.48C532.624 20.06 533.884 19.85 535.464 19.85H540.504V21.92H535.584C534.144 21.92 533.174 22.16 532.674 22.64C532.174 23.12 531.924 23.7 531.924 24.38C531.924 25.16 532.234 25.79 532.854 26.27C533.474 26.73 534.334 26.96 535.434 26.96C536.514 26.96 537.454 26.72 538.254 26.24C539.074 25.76 539.664 25.06 540.024 24.14L540.594 26.12C540.214 27.06 539.544 27.81 538.584 28.37C537.624 28.91 536.414 29.18 534.954 29.18ZM548.234 29V13.1H550.994V17.42L550.724 16.34C551.164 15.24 551.904 14.4 552.944 13.82C553.984 13.24 555.264 12.95 556.784 12.95V15.74C556.664 15.72 556.544 15.71 556.424 15.71C556.324 15.71 556.224 15.71 556.124 15.71C554.584 15.71 553.364 16.17 552.464 17.09C551.564 18.01 551.114 19.34 551.114 21.08V29H548.234ZM567.267 29.18C565.567 29.18 564.067 28.83 562.767 28.13C561.487 27.43 560.487 26.47 559.767 25.25C559.067 24.03 558.717 22.63 558.717 21.05C558.717 19.47 559.057 18.07 559.737 16.85C560.437 15.63 561.387 14.68 562.587 14C563.807 13.3 565.177 12.95 566.697 12.95C568.237 12.95 569.597 13.29 570.777 13.97C571.957 14.65 572.877 15.61 573.537 16.85C574.217 18.07 574.557 19.5 574.557 21.14C574.557 21.26 574.547 21.4 574.527 21.56C574.527 21.72 574.517 21.87 574.497 22.01H560.967V19.94H572.997L571.827 20.66C571.847 19.64 571.637 18.73 571.197 17.93C570.757 17.13 570.147 16.51 569.367 16.07C568.607 15.61 567.717 15.38 566.697 15.38C565.697 15.38 564.807 15.61 564.027 16.07C563.247 16.51 562.637 17.14 562.197 17.96C561.757 18.76 561.537 19.68 561.537 20.72V21.2C561.537 22.26 561.777 23.21 562.257 24.05C562.757 24.87 563.447 25.51 564.327 25.97C565.207 26.43 566.217 26.66 567.357 26.66C568.297 26.66 569.147 26.5 569.907 26.18C570.687 25.86 571.367 25.38 571.947 24.74L573.537 26.6C572.817 27.44 571.917 28.08 570.837 28.52C569.777 28.96 568.587 29.18 567.267 29.18ZM67.1274 66.24C65.5274 66.24 63.9974 66 62.5374 65.52C61.0774 65.02 59.9274 64.38 59.0874 63.6L60.1974 61.26C60.9974 61.96 62.0174 62.54 63.2574 63C64.4974 63.46 65.7874 63.69 67.1274 63.69C68.3474 63.69 69.3374 63.55 70.0974 63.27C70.8574 62.99 71.4174 62.61 71.7774 62.13C72.1374 61.63 72.3174 61.07 72.3174 60.45C72.3174 59.73 72.0774 59.15 71.5974 58.71C71.1374 58.27 70.5274 57.92 69.7674 57.66C69.0274 57.38 68.2074 57.14 67.3074 56.94C66.4074 56.74 65.4974 56.51 64.5774 56.25C63.6774 55.97 62.8474 55.62 62.0874 55.2C61.3474 54.78 60.7474 54.22 60.2874 53.52C59.8274 52.8 59.5974 51.88 59.5974 50.76C59.5974 49.68 59.8774 48.69 60.4374 47.79C61.0174 46.87 61.8974 46.14 63.0774 45.6C64.2774 45.04 65.7974 44.76 67.6374 44.76C68.8574 44.76 70.0674 44.92 71.2674 45.24C72.4674 45.56 73.5074 46.02 74.3874 46.62L73.3974 49.02C72.4974 48.42 71.5474 47.99 70.5474 47.73C69.5474 47.45 68.5774 47.31 67.6374 47.31C66.4574 47.31 65.4874 47.46 64.7274 47.76C63.9674 48.06 63.4074 48.46 63.0474 48.96C62.7074 49.46 62.5374 50.02 62.5374 50.64C62.5374 51.38 62.7674 51.97 63.2274 52.41C63.7074 52.85 64.3174 53.2 65.0574 53.46C65.8174 53.72 66.6474 53.96 67.5474 54.18C68.4474 54.38 69.3474 54.61 70.2474 54.87C71.1674 55.13 71.9974 55.47 72.7374 55.89C73.4974 56.31 74.1074 56.87 74.5674 57.57C75.0274 58.27 75.2574 59.17 75.2574 60.27C75.2574 61.33 74.9674 62.32 74.3874 63.24C73.8074 64.14 72.9074 64.87 71.6874 65.43C70.4874 65.97 68.9674 66.24 67.1274 66.24ZM87.6502 66.18C86.3302 66.18 85.1202 65.88 84.0202 65.28C82.9402 64.66 82.0702 63.75 81.4102 62.55C80.7702 61.35 80.4502 59.85 80.4502 58.05C80.4502 56.25 80.7602 54.75 81.3802 53.55C82.0202 52.35 82.8802 51.45 83.9602 50.85C85.0602 50.25 86.2902 49.95 87.6502 49.95C89.2102 49.95 90.5902 50.29 91.7902 50.97C92.9902 51.65 93.9402 52.6 94.6402 53.82C95.3402 55.02 95.6902 56.43 95.6902 58.05C95.6902 59.67 95.3402 61.09 94.6402 62.31C93.9402 63.53 92.9902 64.48 91.7902 65.16C90.5902 65.84 89.2102 66.18 87.6502 66.18ZM79.2202 71.82V50.1H81.9802V54.39L81.8002 58.08L82.1002 61.77V71.82H79.2202ZM87.4102 63.66C88.4302 63.66 89.3402 63.43 90.1402 62.97C90.9602 62.51 91.6002 61.86 92.0602 61.02C92.5402 60.16 92.7802 59.17 92.7802 58.05C92.7802 56.91 92.5402 55.93 92.0602 55.11C91.6002 54.27 90.9602 53.62 90.1402 53.16C89.3402 52.7 88.4302 52.47 87.4102 52.47C86.4102 52.47 85.5002 52.7 84.6802 53.16C83.8802 53.62 83.2402 54.27 82.7602 55.11C82.3002 55.93 82.0702 56.91 82.0702 58.05C82.0702 59.17 82.3002 60.16 82.7602 61.02C83.2402 61.86 83.8802 62.51 84.6802 62.97C85.5002 63.43 86.4102 63.66 87.4102 63.66ZM99.6695 66V50.1H102.429V54.42L102.159 53.34C102.599 52.24 103.339 51.4 104.379 50.82C105.419 50.24 106.699 49.95 108.219 49.95V52.74C108.099 52.72 107.979 52.71 107.859 52.71C107.759 52.71 107.659 52.71 107.559 52.71C106.019 52.71 104.799 53.17 103.899 54.09C102.999 55.01 102.549 56.34 102.549 58.08V66H99.6695ZM111.769 66V50.1H114.649V66H111.769ZM113.209 47.04C112.649 47.04 112.179 46.86 111.799 46.5C111.439 46.14 111.259 45.7 111.259 45.18C111.259 44.64 111.439 44.19 111.799 43.83C112.179 43.47 112.649 43.29 113.209 43.29C113.769 43.29 114.229 43.47 114.589 43.83C114.969 44.17 115.159 44.6 115.159 45.12C115.159 45.66 114.979 46.12 114.619 46.5C114.259 46.86 113.789 47.04 113.209 47.04ZM125.608 66.18C124.008 66.18 122.768 65.75 121.888 64.89C121.008 64.03 120.568 62.8 120.568 61.2V46.62H123.448V61.08C123.448 61.94 123.658 62.6 124.078 63.06C124.518 63.52 125.138 63.75 125.938 63.75C126.838 63.75 127.588 63.5 128.188 63L129.088 65.07C128.648 65.45 128.118 65.73 127.498 65.91C126.898 66.09 126.268 66.18 125.608 66.18ZM117.868 52.47V50.1H128.008V52.47H117.868ZM134.91 62.16L134.97 58.47L144.12 50.1H147.6L140.58 57L139.02 58.32L134.91 62.16ZM132.57 66V43.74H135.45V66H132.57ZM144.72 66L138.48 58.26L140.34 55.95L148.26 66H144.72ZM157.222 66.18C155.622 66.18 154.202 65.83 152.962 65.13C151.722 64.43 150.742 63.47 150.022 62.25C149.302 61.01 148.942 59.61 148.942 58.05C148.942 56.47 149.302 55.07 150.022 53.85C150.742 52.63 151.722 51.68 152.962 51C154.202 50.3 155.622 49.95 157.222 49.95C158.802 49.95 160.212 50.3 161.452 51C162.712 51.68 163.692 52.63 164.392 53.85C165.112 55.05 165.472 56.45 165.472 58.05C165.472 59.63 165.112 61.03 164.392 62.25C163.692 63.47 162.712 64.43 161.452 65.13C160.212 65.83 158.802 66.18 157.222 66.18ZM157.222 63.66C158.242 63.66 159.152 63.43 159.952 62.97C160.772 62.51 161.412 61.86 161.872 61.02C162.332 60.16 162.562 59.17 162.562 58.05C162.562 56.91 162.332 55.93 161.872 55.11C161.412 54.27 160.772 53.62 159.952 53.16C159.152 52.7 158.242 52.47 157.222 52.47C156.202 52.47 155.292 52.7 154.492 53.16C153.692 53.62 153.052 54.27 152.572 55.11C152.092 55.93 151.852 56.91 151.852 58.05C151.852 59.17 152.092 60.16 152.572 61.02C153.052 61.86 153.692 62.51 154.492 62.97C155.292 63.43 156.202 63.66 157.222 63.66ZM174.015 66.18C172.695 66.18 171.435 66 170.235 65.64C169.055 65.28 168.125 64.84 167.445 64.32L168.645 62.04C169.325 62.5 170.165 62.89 171.165 63.21C172.165 63.53 173.185 63.69 174.225 63.69C175.565 63.69 176.525 63.5 177.105 63.12C177.705 62.74 178.005 62.21 178.005 61.53C178.005 61.03 177.825 60.64 177.465 60.36C177.105 60.08 176.625 59.87 176.025 59.73C175.445 59.59 174.795 59.47 174.075 59.37C173.355 59.25 172.635 59.11 171.915 58.95C171.195 58.77 170.535 58.53 169.935 58.23C169.335 57.91 168.855 57.48 168.495 56.94C168.135 56.38 167.955 55.64 167.955 54.72C167.955 53.76 168.225 52.92 168.765 52.2C169.305 51.48 170.065 50.93 171.045 50.55C172.045 50.15 173.225 49.95 174.585 49.95C175.625 49.95 176.675 50.08 177.735 50.34C178.815 50.58 179.695 50.93 180.375 51.39L179.145 53.67C178.425 53.19 177.675 52.86 176.895 52.68C176.115 52.5 175.335 52.41 174.555 52.41C173.295 52.41 172.355 52.62 171.735 53.04C171.115 53.44 170.805 53.96 170.805 54.6C170.805 55.14 170.985 55.56 171.345 55.86C171.725 56.14 172.205 56.36 172.785 56.52C173.385 56.68 174.045 56.82 174.765 56.94C175.485 57.04 176.205 57.18 176.925 57.36C177.645 57.52 178.295 57.75 178.875 58.05C179.475 58.35 179.955 58.77 180.315 59.31C180.695 59.85 180.885 60.57 180.885 61.47C180.885 62.43 180.605 63.26 180.045 63.96C179.485 64.66 178.695 65.21 177.675 65.61C176.655 65.99 175.435 66.18 174.015 66.18ZM189.944 66.18C188.344 66.18 187.104 65.75 186.224 64.89C185.344 64.03 184.904 62.8 184.904 61.2V46.62H187.784V61.08C187.784 61.94 187.994 62.6 188.414 63.06C188.854 63.52 189.474 63.75 190.274 63.75C191.174 63.75 191.924 63.5 192.524 63L193.424 65.07C192.984 65.45 192.454 65.73 191.834 65.91C191.234 66.09 190.604 66.18 189.944 66.18ZM182.204 52.47V50.1H192.344V52.47H182.204ZM203.458 66.18C201.758 66.18 200.258 65.83 198.958 65.13C197.678 64.43 196.678 63.47 195.958 62.25C195.258 61.03 194.908 59.63 194.908 58.05C194.908 56.47 195.248 55.07 195.928 53.85C196.628 52.63 197.578 51.68 198.778 51C199.998 50.3 201.368 49.95 202.888 49.95C204.428 49.95 205.788 50.29 206.968 50.97C208.148 51.65 209.068 52.61 209.728 53.85C210.408 55.07 210.748 56.5 210.748 58.14C210.748 58.26 210.738 58.4 210.718 58.56C210.718 58.72 210.708 58.87 210.688 59.01H197.158V56.94H209.188L208.018 57.66C208.038 56.64 207.828 55.73 207.388 54.93C206.948 54.13 206.338 53.51 205.558 53.07C204.798 52.61 203.908 52.38 202.888 52.38C201.888 52.38 200.998 52.61 200.218 53.07C199.438 53.51 198.828 54.14 198.388 54.96C197.948 55.76 197.728 56.68 197.728 57.72V58.2C197.728 59.26 197.968 60.21 198.448 61.05C198.948 61.87 199.638 62.51 200.518 62.97C201.398 63.43 202.408 63.66 203.548 63.66C204.488 63.66 205.338 63.5 206.098 63.18C206.878 62.86 207.558 62.38 208.138 61.74L209.728 63.6C209.008 64.44 208.108 65.08 207.028 65.52C205.968 65.96 204.778 66.18 203.458 66.18ZM223.238 49.95C224.538 49.95 225.678 50.2 226.658 50.7C227.658 51.2 228.438 51.96 228.998 52.98C229.558 54 229.838 55.29 229.838 56.85V66H226.958V57.18C226.958 55.64 226.578 54.48 225.818 53.7C225.078 52.92 224.028 52.53 222.668 52.53C221.648 52.53 220.758 52.73 219.998 53.13C219.238 53.53 218.648 54.12 218.228 54.9C217.828 55.68 217.628 56.65 217.628 57.81V66H214.748V50.1H217.508V54.39L217.058 53.25C217.578 52.21 218.378 51.4 219.458 50.82C220.538 50.24 221.798 49.95 223.238 49.95ZM234.028 70.44L235.528 64.38L235.918 66.12C235.338 66.12 234.848 65.94 234.448 65.58C234.068 65.22 233.878 64.73 233.878 64.11C233.878 63.51 234.068 63.02 234.448 62.64C234.848 62.26 235.328 62.07 235.888 62.07C236.468 62.07 236.938 62.27 237.298 62.67C237.658 63.05 237.838 63.53 237.838 64.11C237.838 64.31 237.818 64.51 237.778 64.71C237.758 64.89 237.708 65.11 237.628 65.37C237.568 65.61 237.468 65.91 237.328 66.27L235.918 70.44H234.028ZM250.021 66V50.1H252.901V66H250.021ZM251.461 47.04C250.901 47.04 250.431 46.86 250.051 46.5C249.691 46.14 249.511 45.7 249.511 45.18C249.511 44.64 249.691 44.19 250.051 43.83C250.431 43.47 250.901 43.29 251.461 43.29C252.021 43.29 252.481 43.47 252.841 43.83C253.221 44.17 253.411 44.6 253.411 45.12C253.411 45.66 253.231 46.12 252.871 46.5C252.511 46.86 252.041 47.04 251.461 47.04ZM266.89 49.95C268.19 49.95 269.33 50.2 270.31 50.7C271.31 51.2 272.09 51.96 272.65 52.98C273.21 54 273.49 55.29 273.49 56.85V66H270.61V57.18C270.61 55.64 270.23 54.48 269.47 53.7C268.73 52.92 267.68 52.53 266.32 52.53C265.3 52.53 264.41 52.73 263.65 53.13C262.89 53.53 262.3 54.12 261.88 54.9C261.48 55.68 261.28 56.65 261.28 57.81V66H258.4V50.1H261.16V54.39L260.71 53.25C261.23 52.21 262.03 51.4 263.11 50.82C264.19 50.24 265.45 49.95 266.89 49.95ZM285.39 66.18C283.85 66.18 282.47 65.84 281.25 65.16C280.05 64.48 279.1 63.53 278.4 62.31C277.7 61.09 277.35 59.67 277.35 58.05C277.35 56.43 277.7 55.02 278.4 53.82C279.1 52.6 280.05 51.65 281.25 50.97C282.47 50.29 283.85 49.95 285.39 49.95C286.73 49.95 287.94 50.25 289.02 50.85C290.1 51.45 290.96 52.35 291.6 53.55C292.26 54.75 292.59 56.25 292.59 58.05C292.59 59.85 292.27 61.35 291.63 62.55C291.01 63.75 290.16 64.66 289.08 65.28C288 65.88 286.77 66.18 285.39 66.18ZM285.63 63.66C286.63 63.66 287.53 63.43 288.33 62.97C289.15 62.51 289.79 61.86 290.25 61.02C290.73 60.16 290.97 59.17 290.97 58.05C290.97 56.91 290.73 55.93 290.25 55.11C289.79 54.27 289.15 53.62 288.33 53.16C287.53 52.7 286.63 52.47 285.63 52.47C284.61 52.47 283.7 52.7 282.9 53.16C282.1 53.62 281.46 54.27 280.98 55.11C280.5 55.93 280.26 56.91 280.26 58.05C280.26 59.17 280.5 60.16 280.98 61.02C281.46 61.86 282.1 62.51 282.9 62.97C283.7 63.43 284.61 63.66 285.63 63.66ZM291.06 66V61.71L291.24 58.02L290.94 54.33V43.74H293.82V66H291.06ZM306.349 66.18C304.649 66.18 303.149 65.83 301.849 65.13C300.569 64.43 299.569 63.47 298.849 62.25C298.149 61.03 297.799 59.63 297.799 58.05C297.799 56.47 298.139 55.07 298.819 53.85C299.519 52.63 300.469 51.68 301.669 51C302.889 50.3 304.259 49.95 305.779 49.95C307.319 49.95 308.679 50.29 309.859 50.97C311.039 51.65 311.959 52.61 312.619 53.85C313.299 55.07 313.639 56.5 313.639 58.14C313.639 58.26 313.629 58.4 313.609 58.56C313.609 58.72 313.599 58.87 313.579 59.01H300.049V56.94H312.079L310.909 57.66C310.929 56.64 310.719 55.73 310.279 54.93C309.839 54.13 309.229 53.51 308.449 53.07C307.689 52.61 306.799 52.38 305.779 52.38C304.779 52.38 303.889 52.61 303.109 53.07C302.329 53.51 301.719 54.14 301.279 54.96C300.839 55.76 300.619 56.68 300.619 57.72V58.2C300.619 59.26 300.859 60.21 301.339 61.05C301.839 61.87 302.529 62.51 303.409 62.97C304.289 63.43 305.299 63.66 306.439 63.66C307.379 63.66 308.229 63.5 308.989 63.18C309.769 62.86 310.449 62.38 311.029 61.74L312.619 63.6C311.899 64.44 310.999 65.08 309.919 65.52C308.859 65.96 307.669 66.18 306.349 66.18ZM337.528 49.95C338.808 49.95 339.938 50.2 340.918 50.7C341.898 51.2 342.658 51.96 343.198 52.98C343.758 54 344.038 55.29 344.038 56.85V66H341.158V57.18C341.158 55.64 340.798 54.48 340.078 53.7C339.358 52.92 338.348 52.53 337.048 52.53C336.088 52.53 335.248 52.73 334.528 53.13C333.808 53.53 333.248 54.12 332.848 54.9C332.468 55.68 332.278 56.65 332.278 57.81V66H329.398V57.18C329.398 55.64 329.038 54.48 328.318 53.7C327.618 52.92 326.608 52.53 325.288 52.53C324.348 52.53 323.518 52.73 322.798 53.13C322.078 53.53 321.518 54.12 321.118 54.9C320.718 55.68 320.518 56.65 320.518 57.81V66H317.638V50.1H320.398V54.33L319.948 53.25C320.448 52.21 321.218 51.4 322.258 50.82C323.298 50.24 324.508 49.95 325.888 49.95C327.408 49.95 328.718 50.33 329.818 51.09C330.918 51.83 331.638 52.96 331.978 54.48L330.808 54C331.288 52.78 332.128 51.8 333.328 51.06C334.528 50.32 335.928 49.95 337.528 49.95ZM363.964 66.18C362.424 66.18 361.044 65.84 359.824 65.16C358.624 64.48 357.674 63.53 356.974 62.31C356.274 61.09 355.924 59.67 355.924 58.05C355.924 56.43 356.274 55.02 356.974 53.82C357.674 52.6 358.624 51.65 359.824 50.97C361.044 50.29 362.424 49.95 363.964 49.95C365.304 49.95 366.514 50.25 367.594 50.85C368.674 51.45 369.534 52.35 370.174 53.55C370.834 54.75 371.164 56.25 371.164 58.05C371.164 59.85 370.844 61.35 370.204 62.55C369.584 63.75 368.734 64.66 367.654 65.28C366.574 65.88 365.344 66.18 363.964 66.18ZM364.204 63.66C365.204 63.66 366.104 63.43 366.904 62.97C367.724 62.51 368.364 61.86 368.824 61.02C369.304 60.16 369.544 59.17 369.544 58.05C369.544 56.91 369.304 55.93 368.824 55.11C368.364 54.27 367.724 53.62 366.904 53.16C366.104 52.7 365.204 52.47 364.204 52.47C363.184 52.47 362.274 52.7 361.474 53.16C360.674 53.62 360.034 54.27 359.554 55.11C359.074 55.93 358.834 56.91 358.834 58.05C358.834 59.17 359.074 60.16 359.554 61.02C360.034 61.86 360.674 62.51 361.474 62.97C362.274 63.43 363.184 63.66 364.204 63.66ZM369.634 66V61.71L369.814 58.02L369.514 54.33V43.74H372.394V66H369.634ZM384.533 66.18C383.173 66.18 381.973 65.93 380.933 65.43C379.913 64.93 379.113 64.17 378.533 63.15C377.973 62.11 377.693 60.81 377.693 59.25V50.1H380.573V58.92C380.573 60.48 380.943 61.65 381.683 62.43C382.443 63.21 383.503 63.6 384.863 63.6C385.863 63.6 386.733 63.4 387.473 63C388.213 62.58 388.783 61.98 389.183 61.2C389.583 60.4 389.783 59.44 389.783 58.32V50.1H392.663V66H389.933V61.71L390.383 62.85C389.863 63.91 389.083 64.73 388.043 65.31C387.003 65.89 385.833 66.18 384.533 66.18ZM416.013 66.24C414.413 66.24 412.933 65.98 411.573 65.46C410.233 64.92 409.063 64.17 408.063 63.21C407.083 62.23 406.313 61.09 405.753 59.79C405.193 58.49 404.913 57.06 404.913 55.5C404.913 53.94 405.193 52.51 405.753 51.21C406.313 49.91 407.093 48.78 408.093 47.82C409.093 46.84 410.263 46.09 411.603 45.57C412.963 45.03 414.443 44.76 416.043 44.76C417.663 44.76 419.153 45.04 420.513 45.6C421.893 46.14 423.063 46.95 424.023 48.03L422.073 49.92C421.273 49.08 420.373 48.46 419.373 48.06C418.373 47.64 417.303 47.43 416.163 47.43C414.983 47.43 413.883 47.63 412.863 48.03C411.863 48.43 410.993 48.99 410.253 49.71C409.513 50.43 408.933 51.29 408.513 52.29C408.113 53.27 407.913 54.34 407.913 55.5C407.913 56.66 408.113 57.74 408.513 58.74C408.933 59.72 409.513 60.57 410.253 61.29C410.993 62.01 411.863 62.57 412.863 62.97C413.883 63.37 414.983 63.57 416.163 63.57C417.303 63.57 418.373 63.37 419.373 62.97C420.373 62.55 421.273 61.91 422.073 61.05L424.023 62.94C423.063 64.02 421.893 64.84 420.513 65.4C419.153 65.96 417.653 66.24 416.013 66.24ZM437.547 66V62.64L437.397 62.01V56.28C437.397 55.06 437.037 54.12 436.317 53.46C435.617 52.78 434.557 52.44 433.137 52.44C432.197 52.44 431.277 52.6 430.377 52.92C429.477 53.22 428.717 53.63 428.097 54.15L426.897 51.99C427.717 51.33 428.697 50.83 429.837 50.49C430.997 50.13 432.207 49.95 433.467 49.95C435.647 49.95 437.327 50.48 438.507 51.54C439.687 52.6 440.277 54.22 440.277 56.4V66H437.547ZM432.327 66.18C431.147 66.18 430.107 65.98 429.207 65.58C428.327 65.18 427.647 64.63 427.167 63.93C426.687 63.21 426.447 62.4 426.447 61.5C426.447 60.64 426.647 59.86 427.047 59.16C427.467 58.46 428.137 57.9 429.057 57.48C429.997 57.06 431.257 56.85 432.837 56.85H437.877V58.92H432.957C431.517 58.92 430.547 59.16 430.047 59.64C429.547 60.12 429.297 60.7 429.297 61.38C429.297 62.16 429.607 62.79 430.227 63.27C430.847 63.73 431.707 63.96 432.807 63.96C433.887 63.96 434.827 63.72 435.627 63.24C436.447 62.76 437.037 62.06 437.397 61.14L437.967 63.12C437.587 64.06 436.917 64.81 435.957 65.37C434.997 65.91 433.787 66.18 432.327 66.18ZM445.607 66V50.1H448.367V54.42L448.097 53.34C448.537 52.24 449.277 51.4 450.317 50.82C451.357 50.24 452.637 49.95 454.157 49.95V52.74C454.037 52.72 453.917 52.71 453.797 52.71C453.697 52.71 453.597 52.71 453.497 52.71C451.957 52.71 450.737 53.17 449.837 54.09C448.937 55.01 448.487 56.34 448.487 58.08V66H445.607ZM462.442 66.18C461.122 66.18 459.862 66 458.662 65.64C457.482 65.28 456.552 64.84 455.872 64.32L457.072 62.04C457.752 62.5 458.592 62.89 459.592 63.21C460.592 63.53 461.612 63.69 462.652 63.69C463.992 63.69 464.952 63.5 465.532 63.12C466.132 62.74 466.432 62.21 466.432 61.53C466.432 61.03 466.252 60.64 465.892 60.36C465.532 60.08 465.052 59.87 464.452 59.73C463.872 59.59 463.222 59.47 462.502 59.37C461.782 59.25 461.062 59.11 460.342 58.95C459.622 58.77 458.962 58.53 458.362 58.23C457.762 57.91 457.282 57.48 456.922 56.94C456.562 56.38 456.382 55.64 456.382 54.72C456.382 53.76 456.652 52.92 457.192 52.2C457.732 51.48 458.492 50.93 459.472 50.55C460.472 50.15 461.652 49.95 463.012 49.95C464.052 49.95 465.102 50.08 466.162 50.34C467.242 50.58 468.122 50.93 468.802 51.39L467.572 53.67C466.852 53.19 466.102 52.86 465.322 52.68C464.542 52.5 463.762 52.41 462.982 52.41C461.722 52.41 460.782 52.62 460.162 53.04C459.542 53.44 459.232 53.96 459.232 54.6C459.232 55.14 459.412 55.56 459.772 55.86C460.152 56.14 460.632 56.36 461.212 56.52C461.812 56.68 462.472 56.82 463.192 56.94C463.912 57.04 464.632 57.18 465.352 57.36C466.072 57.52 466.722 57.75 467.302 58.05C467.902 58.35 468.382 58.77 468.742 59.31C469.122 59.85 469.312 60.57 469.312 61.47C469.312 62.43 469.032 63.26 468.472 63.96C467.912 64.66 467.122 65.21 466.102 65.61C465.082 65.99 463.862 66.18 462.442 66.18ZM481.402 49.95C482.702 49.95 483.842 50.2 484.822 50.7C485.822 51.2 486.602 51.96 487.162 52.98C487.722 54 488.002 55.29 488.002 56.85V66H485.122V57.18C485.122 55.64 484.742 54.48 483.982 53.7C483.242 52.92 482.192 52.53 480.832 52.53C479.812 52.53 478.922 52.73 478.162 53.13C477.402 53.53 476.812 54.12 476.392 54.9C475.992 55.68 475.792 56.65 475.792 57.81V66H472.912V43.74H475.792V54.39L475.222 53.25C475.742 52.21 476.542 51.4 477.622 50.82C478.702 50.24 479.962 49.95 481.402 49.95ZM503.202 66V62.64L503.052 62.01V56.28C503.052 55.06 502.692 54.12 501.972 53.46C501.272 52.78 500.212 52.44 498.792 52.44C497.852 52.44 496.932 52.6 496.032 52.92C495.132 53.22 494.372 53.63 493.752 54.15L492.552 51.99C493.372 51.33 494.352 50.83 495.492 50.49C496.652 50.13 497.862 49.95 499.122 49.95C501.302 49.95 502.982 50.48 504.162 51.54C505.342 52.6 505.932 54.22 505.932 56.4V66H503.202ZM497.982 66.18C496.802 66.18 495.762 65.98 494.862 65.58C493.982 65.18 493.302 64.63 492.822 63.93C492.342 63.21 492.102 62.4 492.102 61.5C492.102 60.64 492.302 59.86 492.702 59.16C493.122 58.46 493.792 57.9 494.712 57.48C495.652 57.06 496.912 56.85 498.492 56.85H503.532V58.92H498.612C497.172 58.92 496.202 59.16 495.702 59.64C495.202 60.12 494.952 60.7 494.952 61.38C494.952 62.16 495.262 62.79 495.882 63.27C496.502 63.73 497.362 63.96 498.462 63.96C499.542 63.96 500.482 63.72 501.282 63.24C502.102 62.76 502.692 62.06 503.052 61.14L503.622 63.12C503.242 64.06 502.572 64.81 501.612 65.37C500.652 65.91 499.442 66.18 497.982 66.18ZM511.261 66V50.1H514.021V54.42L513.751 53.34C514.191 52.24 514.931 51.4 515.971 50.82C517.011 50.24 518.291 49.95 519.811 49.95V52.74C519.691 52.72 519.571 52.71 519.451 52.71C519.351 52.71 519.251 52.71 519.151 52.71C517.611 52.71 516.391 53.17 515.491 54.09C514.591 55.01 514.141 56.34 514.141 58.08V66H511.261ZM523.361 66V50.1H526.241V66H523.361ZM524.801 47.04C524.241 47.04 523.771 46.86 523.391 46.5C523.031 46.14 522.851 45.7 522.851 45.18C522.851 44.64 523.031 44.19 523.391 43.83C523.771 43.47 524.241 43.29 524.801 43.29C525.361 43.29 525.821 43.47 526.181 43.83C526.561 44.17 526.751 44.6 526.751 45.12C526.751 45.66 526.571 46.12 526.211 46.5C525.851 46.86 525.381 47.04 524.801 47.04ZM540.23 49.95C541.53 49.95 542.67 50.2 543.65 50.7C544.65 51.2 545.43 51.96 545.99 52.98C546.55 54 546.83 55.29 546.83 56.85V66H543.95V57.18C543.95 55.64 543.57 54.48 542.81 53.7C542.07 52.92 541.02 52.53 539.66 52.53C538.64 52.53 537.75 52.73 536.99 53.13C536.23 53.53 535.64 54.12 535.22 54.9C534.82 55.68 534.62 56.65 534.62 57.81V66H531.74V50.1H534.5V54.39L534.05 53.25C534.57 52.21 535.37 51.4 536.45 50.82C537.53 50.24 538.79 49.95 540.23 49.95ZM559.12 72C557.66 72 556.24 71.79 554.86 71.37C553.5 70.97 552.39 70.39 551.53 69.63L552.91 67.41C553.65 68.05 554.56 68.55 555.64 68.91C556.72 69.29 557.85 69.48 559.03 69.48C560.91 69.48 562.29 69.04 563.17 68.16C564.05 67.28 564.49 65.94 564.49 64.14V60.78L564.79 57.63L564.64 54.45V50.1H567.37V63.84C567.37 66.64 566.67 68.7 565.27 70.02C563.87 71.34 561.82 72 559.12 72ZM558.76 65.34C557.22 65.34 555.84 65.02 554.62 64.38C553.42 63.72 552.46 62.81 551.74 61.65C551.04 60.49 550.69 59.15 550.69 57.63C550.69 56.09 551.04 54.75 551.74 53.61C552.46 52.45 553.42 51.55 554.62 50.91C555.84 50.27 557.22 49.95 558.76 49.95C560.12 49.95 561.36 50.23 562.48 50.79C563.6 51.33 564.49 52.17 565.15 53.31C565.83 54.45 566.17 55.89 566.17 57.63C566.17 59.35 565.83 60.78 565.15 61.92C564.49 63.06 563.6 63.92 562.48 64.5C561.36 65.06 560.12 65.34 558.76 65.34ZM559.09 62.82C560.15 62.82 561.09 62.6 561.91 62.16C562.73 61.72 563.37 61.11 563.83 60.33C564.31 59.55 564.55 58.65 564.55 57.63C564.55 56.61 564.31 55.71 563.83 54.93C563.37 54.15 562.73 53.55 561.91 53.13C561.09 52.69 560.15 52.47 559.09 52.47C558.03 52.47 557.08 52.69 556.24 53.13C555.42 53.55 554.77 54.15 554.29 54.93C553.83 55.71 553.6 56.61 553.6 57.63C553.6 58.65 553.83 59.55 554.29 60.33C554.77 61.11 555.42 61.72 556.24 62.16C557.08 62.6 558.03 62.82 559.09 62.82ZM254.969 103V99.64L254.819 99.01V93.28C254.819 92.06 254.459 91.12 253.739 90.46C253.039 89.78 251.979 89.44 250.559 89.44C249.619 89.44 248.699 89.6 247.799 89.92C246.899 90.22 246.139 90.63 245.519 91.15L244.319 88.99C245.139 88.33 246.119 87.83 247.259 87.49C248.419 87.13 249.629 86.95 250.889 86.95C253.069 86.95 254.749 87.48 255.929 88.54C257.109 89.6 257.699 91.22 257.699 93.4V103H254.969ZM249.749 103.18C248.569 103.18 247.529 102.98 246.629 102.58C245.749 102.18 245.069 101.63 244.589 100.93C244.109 100.21 243.869 99.4 243.869 98.5C243.869 97.64 244.069 96.86 244.469 96.16C244.889 95.46 245.559 94.9 246.479 94.48C247.419 94.06 248.679 93.85 250.259 93.85H255.299V95.92H250.379C248.939 95.92 247.969 96.16 247.469 96.64C246.969 97.12 246.719 97.7 246.719 98.38C246.719 99.16 247.029 99.79 247.649 100.27C248.269 100.73 249.129 100.96 250.229 100.96C251.309 100.96 252.249 100.72 253.049 100.24C253.869 99.76 254.459 99.06 254.819 98.14L255.389 100.12C255.009 101.06 254.339 101.81 253.379 102.37C252.419 102.91 251.209 103.18 249.749 103.18ZM271.519 86.95C272.819 86.95 273.959 87.2 274.939 87.7C275.939 88.2 276.719 88.96 277.279 89.98C277.839 91 278.119 92.29 278.119 93.85V103H275.239V94.18C275.239 92.64 274.859 91.48 274.099 90.7C273.359 89.92 272.309 89.53 270.949 89.53C269.929 89.53 269.039 89.73 268.279 90.13C267.519 90.53 266.929 91.12 266.509 91.9C266.109 92.68 265.909 93.65 265.909 94.81V103H263.029V87.1H265.789V91.39L265.339 90.25C265.859 89.21 266.659 88.4 267.739 87.82C268.819 87.24 270.079 86.95 271.519 86.95ZM291.879 103.18C290.519 103.18 289.289 102.88 288.189 102.28C287.109 101.66 286.249 100.75 285.609 99.55C284.989 98.35 284.679 96.85 284.679 95.05C284.679 93.25 284.999 91.75 285.639 90.55C286.299 89.35 287.169 88.45 288.249 87.85C289.349 87.25 290.559 86.95 291.879 86.95C293.439 86.95 294.819 87.29 296.019 87.97C297.219 88.65 298.169 89.6 298.869 90.82C299.569 92.02 299.919 93.43 299.919 95.05C299.919 96.67 299.569 98.09 298.869 99.31C298.169 100.53 297.219 101.48 296.019 102.16C294.819 102.84 293.439 103.18 291.879 103.18ZM283.449 103V80.74H286.329V91.33L286.029 95.02L286.209 98.71V103H283.449ZM291.639 100.66C292.659 100.66 293.569 100.43 294.369 99.97C295.189 99.51 295.829 98.86 296.289 98.02C296.769 97.16 297.009 96.17 297.009 95.05C297.009 93.91 296.769 92.93 296.289 92.11C295.829 91.27 295.189 90.62 294.369 90.16C293.569 89.7 292.659 89.47 291.639 89.47C290.639 89.47 289.729 89.7 288.909 90.16C288.109 90.62 287.469 91.27 286.989 92.11C286.529 92.93 286.299 93.91 286.299 95.05C286.299 96.17 286.529 97.16 286.989 98.02C287.469 98.86 288.109 99.51 288.909 99.97C289.729 100.43 290.639 100.66 291.639 100.66ZM303.898 103V87.1H306.778V103H303.898ZM305.338 84.04C304.778 84.04 304.308 83.86 303.928 83.5C303.568 83.14 303.388 82.7 303.388 82.18C303.388 81.64 303.568 81.19 303.928 80.83C304.308 80.47 304.778 80.29 305.338 80.29C305.898 80.29 306.358 80.47 306.718 80.83C307.098 81.17 307.288 81.6 307.288 82.12C307.288 82.66 307.108 83.12 306.748 83.5C306.388 83.86 305.918 84.04 305.338 84.04ZM319.357 103.18C317.657 103.18 316.157 102.83 314.857 102.13C313.577 101.43 312.577 100.47 311.857 99.25C311.157 98.03 310.807 96.63 310.807 95.05C310.807 93.47 311.147 92.07 311.827 90.85C312.527 89.63 313.477 88.68 314.677 88C315.897 87.3 317.267 86.95 318.787 86.95C320.327 86.95 321.687 87.29 322.867 87.97C324.047 88.65 324.967 89.61 325.627 90.85C326.307 92.07 326.647 93.5 326.647 95.14C326.647 95.26 326.637 95.4 326.617 95.56C326.617 95.72 326.607 95.87 326.587 96.01H313.057V93.94H325.087L323.917 94.66C323.937 93.64 323.727 92.73 323.287 91.93C322.847 91.13 322.237 90.51 321.457 90.07C320.697 89.61 319.807 89.38 318.787 89.38C317.787 89.38 316.897 89.61 316.117 90.07C315.337 90.51 314.727 91.14 314.287 91.96C313.847 92.76 313.627 93.68 313.627 94.72V95.2C313.627 96.26 313.867 97.21 314.347 98.05C314.847 98.87 315.537 99.51 316.417 99.97C317.297 100.43 318.307 100.66 319.447 100.66C320.387 100.66 321.237 100.5 321.997 100.18C322.777 99.86 323.457 99.38 324.037 98.74L325.627 100.6C324.907 101.44 324.007 102.08 322.927 102.52C321.867 102.96 320.677 103.18 319.357 103.18ZM336.106 103.18C334.506 103.18 333.266 102.75 332.386 101.89C331.506 101.03 331.066 99.8 331.066 98.2V83.62H333.946V98.08C333.946 98.94 334.156 99.6 334.576 100.06C335.016 100.52 335.636 100.75 336.436 100.75C337.336 100.75 338.086 100.5 338.686 100L339.586 102.07C339.146 102.45 338.616 102.73 337.996 102.91C337.396 103.09 336.766 103.18 336.106 103.18ZM328.366 89.47V87.1H338.506V89.47H328.366ZM349.621 103.18C347.921 103.18 346.421 102.83 345.121 102.13C343.841 101.43 342.841 100.47 342.121 99.25C341.421 98.03 341.071 96.63 341.071 95.05C341.071 93.47 341.411 92.07 342.091 90.85C342.791 89.63 343.741 88.68 344.941 88C346.161 87.3 347.531 86.95 349.051 86.95C350.591 86.95 351.951 87.29 353.131 87.97C354.311 88.65 355.231 89.61 355.891 90.85C356.571 92.07 356.911 93.5 356.911 95.14C356.911 95.26 356.901 95.4 356.881 95.56C356.881 95.72 356.871 95.87 356.851 96.01H343.321V93.94H355.351L354.181 94.66C354.201 93.64 353.991 92.73 353.551 91.93C353.111 91.13 352.501 90.51 351.721 90.07C350.961 89.61 350.071 89.38 349.051 89.38C348.051 89.38 347.161 89.61 346.381 90.07C345.601 90.51 344.991 91.14 344.551 91.96C344.111 92.76 343.891 93.68 343.891 94.72V95.2C343.891 96.26 344.131 97.21 344.611 98.05C345.111 98.87 345.801 99.51 346.681 99.97C347.561 100.43 348.571 100.66 349.711 100.66C350.651 100.66 351.501 100.5 352.261 100.18C353.041 99.86 353.721 99.38 354.301 98.74L355.891 100.6C355.171 101.44 354.271 102.08 353.191 102.52C352.131 102.96 350.941 103.18 349.621 103.18ZM365.47 103.18C364.15 103.18 362.89 103 361.69 102.64C360.51 102.28 359.58 101.84 358.9 101.32L360.1 99.04C360.78 99.5 361.62 99.89 362.62 100.21C363.62 100.53 364.64 100.69 365.68 100.69C367.02 100.69 367.98 100.5 368.56 100.12C369.16 99.74 369.46 99.21 369.46 98.53C369.46 98.03 369.28 97.64 368.92 97.36C368.56 97.08 368.08 96.87 367.48 96.73C366.9 96.59 366.25 96.47 365.53 96.37C364.81 96.25 364.09 96.11 363.37 95.95C362.65 95.77 361.99 95.53 361.39 95.23C360.79 94.91 360.31 94.48 359.95 93.94C359.59 93.38 359.41 92.64 359.41 91.72C359.41 90.76 359.68 89.92 360.22 89.2C360.76 88.48 361.52 87.93 362.5 87.55C363.5 87.15 364.68 86.95 366.04 86.95C367.08 86.95 368.13 87.08 369.19 87.34C370.27 87.58 371.15 87.93 371.83 88.39L370.6 90.67C369.88 90.19 369.13 89.86 368.35 89.68C367.57 89.5 366.79 89.41 366.01 89.41C364.75 89.41 363.81 89.62 363.19 90.04C362.57 90.44 362.26 90.96 362.26 91.6C362.26 92.14 362.44 92.56 362.8 92.86C363.18 93.14 363.66 93.36 364.24 93.52C364.84 93.68 365.5 93.82 366.22 93.94C366.94 94.04 367.66 94.18 368.38 94.36C369.1 94.52 369.75 94.75 370.33 95.05C370.93 95.35 371.41 95.77 371.77 96.31C372.15 96.85 372.34 97.57 372.34 98.47C372.34 99.43 372.06 100.26 371.5 100.96C370.94 101.66 370.15 102.21 369.13 102.61C368.11 102.99 366.89 103.18 365.47 103.18ZM381.399 103.18C379.799 103.18 378.559 102.75 377.679 101.89C376.799 101.03 376.359 99.8 376.359 98.2V83.62H379.239V98.08C379.239 98.94 379.449 99.6 379.869 100.06C380.309 100.52 380.929 100.75 381.729 100.75C382.629 100.75 383.379 100.5 383.979 100L384.879 102.07C384.439 102.45 383.909 102.73 383.289 102.91C382.689 103.09 382.059 103.18 381.399 103.18ZM373.659 89.47V87.1H383.799V89.47H373.659Z" fill="#005B52"/>
<defs>
<clipPath id="clip0_279_7">
<rect width="591" height="437" fill="white" transform="translate(0 146)"/>
</clipPath>
</defs>
</svg>
