<svg width="480" height="416" viewBox="0 0 480 416" fill="none" xmlns="http://www.w3.org/2000/svg">
<path d="M460.59 179.05L460.43 178.98L33.35 1.83957C29.7578 0.336054 25.8489 -0.253607 21.9731 0.123335C18.0972 0.500278 14.3752 1.83207 11.14 3.99957C7.72194 6.23926 4.91432 9.29358 2.96974 12.8877C1.02516 16.4819 0.00464332 20.5031 -2.16928e-06 24.5896V137.88C0.00189716 143.466 1.95258 148.877 5.51585 153.179C9.07911 157.482 14.0317 160.407 19.52 161.45L252.45 204.52C253.365 204.693 254.191 205.181 254.786 205.898C255.38 206.616 255.705 207.518 255.705 208.45C255.705 209.381 255.38 210.284 254.786 211.001C254.191 211.719 253.365 212.206 252.45 212.38L19.53 255.45C14.0432 256.49 9.09092 259.411 5.52607 263.709C1.96122 268.008 0.00699258 273.415 -2.16928e-06 279V392.31C-0.00265793 396.212 0.963535 400.053 2.81187 403.49C4.66021 406.927 7.33287 409.851 10.59 412C14.508 414.603 19.1061 415.994 23.81 416C27.0802 415.997 30.3169 415.341 33.33 414.07L460.4 237.94L460.59 237.85C466.339 235.379 471.237 231.277 474.679 226.052C478.121 220.827 479.955 214.707 479.955 208.45C479.955 202.192 478.121 196.073 474.679 190.847C471.237 185.622 466.339 181.52 460.59 179.05V179.05Z" fill="#005B52"/>
</svg>
